G04 #@! TF.GenerationSoftware,KiCad,Pcbnew,(5.0.1-3-g963ef8bb5)*
G04 #@! TF.CreationDate,2018-11-23T17:20:43+01:00*
G04 #@! TF.ProjectId,FT232H,4654323332482E6B696361645F706362,rev?*
G04 #@! TF.SameCoordinates,Original*
G04 #@! TF.FileFunction,Copper,L2,Bot,Signal*
G04 #@! TF.FilePolarity,Positive*
%FSLAX46Y46*%
G04 Gerber Fmt 4.6, Leading zero omitted, Abs format (unit mm)*
G04 Created by KiCad (PCBNEW (5.0.1-3-g963ef8bb5)) date Friday, 23 November 2018 at 17:20:43*
%MOMM*%
%LPD*%
G01*
G04 APERTURE LIST*
G04 #@! TA.AperFunction,ComponentPad*
%ADD10C,3.800000*%
G04 #@! TD*
G04 #@! TA.AperFunction,ComponentPad*
%ADD11C,1.700000*%
G04 #@! TD*
G04 #@! TA.AperFunction,ComponentPad*
%ADD12O,1.700000X1.700000*%
G04 #@! TD*
G04 #@! TA.AperFunction,ViaPad*
%ADD13C,0.508000*%
G04 #@! TD*
G04 #@! TA.AperFunction,Conductor*
%ADD14C,0.152400*%
G04 #@! TD*
G04 #@! TA.AperFunction,Conductor*
%ADD15C,0.254000*%
G04 #@! TD*
G04 APERTURE END LIST*
D10*
G04 #@! TO.P,REF\002A\002A,1*
G04 #@! TO.N,GND*
X154940000Y-83820000D03*
G04 #@! TD*
G04 #@! TO.P,REF\002A\002A,1*
G04 #@! TO.N,GND*
X154940000Y-66040000D03*
G04 #@! TD*
G04 #@! TO.P,REF\002A\002A,1*
G04 #@! TO.N,GND*
X187960000Y-83820000D03*
G04 #@! TD*
G04 #@! TO.P,REF\002A\002A,1*
G04 #@! TO.N,GND*
X187960000Y-66040000D03*
G04 #@! TD*
D11*
G04 #@! TO.P,J2,1*
G04 #@! TO.N,+5V*
X161290000Y-85090000D03*
D12*
G04 #@! TO.P,J2,2*
G04 #@! TO.N,GND*
X163830000Y-85090000D03*
G04 #@! TO.P,J2,3*
G04 #@! TO.N,Net-(J2-Pad3)*
X166370000Y-85090000D03*
G04 #@! TO.P,J2,4*
G04 #@! TO.N,Net-(J2-Pad4)*
X168910000Y-85090000D03*
G04 #@! TO.P,J2,5*
G04 #@! TO.N,Net-(J2-Pad5)*
X171450000Y-85090000D03*
G04 #@! TO.P,J2,6*
G04 #@! TO.N,Net-(J2-Pad6)*
X173990000Y-85090000D03*
G04 #@! TO.P,J2,7*
G04 #@! TO.N,Net-(J2-Pad7)*
X176530000Y-85090000D03*
G04 #@! TO.P,J2,8*
G04 #@! TO.N,Net-(J2-Pad8)*
X179070000Y-85090000D03*
G04 #@! TO.P,J2,9*
G04 #@! TO.N,Net-(J2-Pad9)*
X181610000Y-85090000D03*
G04 #@! TO.P,J2,10*
G04 #@! TO.N,Net-(J2-Pad10)*
X184150000Y-85090000D03*
G04 #@! TD*
G04 #@! TO.P,J3,10*
G04 #@! TO.N,Net-(D1-Pad1)*
X161290000Y-64770000D03*
G04 #@! TO.P,J3,9*
G04 #@! TO.N,Net-(D2-Pad1)*
X163830000Y-64770000D03*
G04 #@! TO.P,J3,8*
G04 #@! TO.N,Net-(J3-Pad8)*
X166370000Y-64770000D03*
G04 #@! TO.P,J3,7*
G04 #@! TO.N,Net-(J3-Pad7)*
X168910000Y-64770000D03*
G04 #@! TO.P,J3,6*
G04 #@! TO.N,Net-(J3-Pad6)*
X171450000Y-64770000D03*
G04 #@! TO.P,J3,5*
G04 #@! TO.N,Net-(J3-Pad5)*
X173990000Y-64770000D03*
G04 #@! TO.P,J3,4*
G04 #@! TO.N,Net-(J3-Pad4)*
X176530000Y-64770000D03*
G04 #@! TO.P,J3,3*
G04 #@! TO.N,Net-(J3-Pad3)*
X179070000Y-64770000D03*
G04 #@! TO.P,J3,2*
G04 #@! TO.N,Net-(J3-Pad2)*
X181610000Y-64770000D03*
D11*
G04 #@! TO.P,J3,1*
G04 #@! TO.N,Net-(J3-Pad1)*
X184150000Y-64770000D03*
G04 #@! TD*
D13*
G04 #@! TO.N,GND*
X172500000Y-77000000D03*
G04 #@! TO.N,+5V*
X157700004Y-73630000D03*
X173200000Y-70950004D03*
G04 #@! TO.N,GND*
X161200000Y-70000000D03*
X172200048Y-68800000D03*
X185500000Y-72750000D03*
X184075000Y-81325000D03*
X156141600Y-72467500D03*
X156141600Y-77392500D03*
X156200000Y-79000000D03*
X156200000Y-70800000D03*
X183200000Y-71000000D03*
X163100000Y-74500000D03*
X161798009Y-79247991D03*
X174500000Y-75000000D03*
X174500000Y-79000000D03*
X170500000Y-75000000D03*
X170500000Y-79000000D03*
G04 #@! TO.N,+3V3*
X177075000Y-69300000D03*
X161798000Y-81788000D03*
X178050000Y-81350000D03*
X160750000Y-73500000D03*
X184399996Y-70300000D03*
X166700000Y-71500004D03*
G04 #@! TO.N,Net-(D1-Pad1)*
X157200000Y-80400000D03*
X185100000Y-70899988D03*
G04 #@! TO.N,Net-(D2-Pad1)*
X185800000Y-71600000D03*
G04 #@! TO.N,Net-(J3-Pad4)*
X188012579Y-73100006D03*
G04 #@! TO.N,Net-(J3-Pad2)*
X185625000Y-79750000D03*
G04 #@! TO.N,Net-(J3-Pad1)*
X178750000Y-83000000D03*
G04 #@! TD*
D14*
G04 #@! TO.N,+5V*
X157700004Y-81500004D02*
X157700004Y-73989210D01*
X161290000Y-85090000D02*
X157700004Y-81500004D01*
X157700004Y-73989210D02*
X157700004Y-73630000D01*
X157700004Y-73630000D02*
X160380000Y-70950004D01*
X160380000Y-70950004D02*
X172840790Y-70950004D01*
X172840790Y-70950004D02*
X173200000Y-70950004D01*
G04 #@! TO.N,+3V3*
X178050000Y-81350000D02*
X178000000Y-81300000D01*
X184399996Y-70299996D02*
X184399996Y-70300000D01*
X183400000Y-69300000D02*
X184399996Y-70299996D01*
X177075000Y-69300000D02*
X183400000Y-69300000D01*
X178050000Y-70275000D02*
X177075000Y-69300000D01*
X178050000Y-81350000D02*
X178050000Y-70275000D01*
X177075000Y-69300000D02*
X174874996Y-71500004D01*
X167059210Y-71500004D02*
X166700000Y-71500004D01*
X174874996Y-71500004D02*
X167059210Y-71500004D01*
X160750000Y-73500000D02*
X160750000Y-80740000D01*
X161567399Y-81557399D02*
X161798000Y-81788000D01*
X160750000Y-80740000D02*
X161567399Y-81557399D01*
G04 #@! TO.N,Net-(D1-Pad1)*
X161290000Y-64770000D02*
X157200000Y-68860000D01*
X157200000Y-68860000D02*
X157200000Y-80040790D01*
X157200000Y-80040790D02*
X157200000Y-80400000D01*
X163329622Y-66809622D02*
X181616424Y-66809622D01*
X185100000Y-70293198D02*
X185100000Y-70540778D01*
X161290000Y-64770000D02*
X163329622Y-66809622D01*
X185100000Y-70540778D02*
X185100000Y-70899988D01*
X181616424Y-66809622D02*
X185100000Y-70293198D01*
G04 #@! TO.N,Net-(D2-Pad1)*
X165564811Y-66504811D02*
X181742679Y-66504811D01*
X163830000Y-64770000D02*
X165564811Y-66504811D01*
X181742679Y-66504811D02*
X185800000Y-70562132D01*
X185800000Y-71240790D02*
X185800000Y-71600000D01*
X185800000Y-70562132D02*
X185800000Y-71240790D01*
G04 #@! TO.N,Net-(J3-Pad4)*
X181868934Y-66200000D02*
X188012579Y-72343645D01*
X188012579Y-72343645D02*
X188012579Y-72740796D01*
X188012579Y-72740796D02*
X188012579Y-73100006D01*
X176530000Y-64770000D02*
X177960000Y-66200000D01*
X177960000Y-66200000D02*
X181868934Y-66200000D01*
G04 #@! TO.N,Net-(J3-Pad2)*
X185878999Y-79496001D02*
X185625000Y-79750000D01*
X188495189Y-72395189D02*
X188495189Y-76879811D01*
X188495189Y-76879811D02*
X185878999Y-79496001D01*
X183200000Y-67100000D02*
X188495189Y-72395189D01*
X183200000Y-66360000D02*
X183200000Y-67100000D01*
X181610000Y-64770000D02*
X183200000Y-66360000D01*
G04 #@! TO.N,Net-(J3-Pad1)*
X179109210Y-83000000D02*
X178750000Y-83000000D01*
X184900000Y-83000000D02*
X179109210Y-83000000D01*
X188900000Y-72300000D02*
X188900000Y-79000000D01*
X188900000Y-79000000D02*
X184900000Y-83000000D01*
X184150000Y-67550000D02*
X188900000Y-72300000D01*
X184150000Y-64770000D02*
X184150000Y-67550000D01*
G04 #@! TD*
D15*
G04 #@! TO.N,GND*
G36*
X186336775Y-64237170D02*
X187960000Y-65860395D01*
X189583225Y-64237170D01*
X189567498Y-64210000D01*
X189790000Y-64210000D01*
X189790000Y-64432502D01*
X189762830Y-64416775D01*
X188139605Y-66040000D01*
X189762830Y-67663225D01*
X189790000Y-67647498D01*
X189790001Y-82212503D01*
X189762830Y-82196775D01*
X188139605Y-83820000D01*
X189762830Y-85443225D01*
X189790001Y-85427497D01*
X189790001Y-85650000D01*
X189567498Y-85650000D01*
X189583225Y-85622830D01*
X187960000Y-83999605D01*
X186336775Y-85622830D01*
X186352502Y-85650000D01*
X185552701Y-85650000D01*
X185664092Y-85090000D01*
X185596804Y-84751719D01*
X185796839Y-85234647D01*
X186157170Y-85443225D01*
X187780395Y-83820000D01*
X187766253Y-83805858D01*
X187945858Y-83626253D01*
X187960000Y-83640395D01*
X189583225Y-82017170D01*
X189374647Y-81656839D01*
X188439157Y-81280138D01*
X187617527Y-81288261D01*
X189353367Y-79552422D01*
X189412746Y-79512746D01*
X189452422Y-79453367D01*
X189452424Y-79453365D01*
X189569935Y-79277498D01*
X189569935Y-79277497D01*
X189569936Y-79277496D01*
X189611200Y-79070046D01*
X189611200Y-79070043D01*
X189625132Y-79000001D01*
X189611200Y-78929959D01*
X189611200Y-72370041D01*
X189625132Y-72299999D01*
X189611200Y-72229955D01*
X189611200Y-72229954D01*
X189569936Y-72022504D01*
X189557293Y-72003582D01*
X189452424Y-71846635D01*
X189452420Y-71846631D01*
X189412745Y-71787254D01*
X189353369Y-71747580D01*
X185448619Y-67842830D01*
X186336775Y-67842830D01*
X186545353Y-68203161D01*
X187480843Y-68579862D01*
X188489279Y-68569892D01*
X189374647Y-68203161D01*
X189583225Y-67842830D01*
X187960000Y-66219605D01*
X186336775Y-67842830D01*
X185448619Y-67842830D01*
X184861200Y-67255412D01*
X184861200Y-66082764D01*
X184991185Y-66028922D01*
X185408922Y-65611185D01*
X185420363Y-65583565D01*
X185430108Y-66569279D01*
X185796839Y-67454647D01*
X186157170Y-67663225D01*
X187780395Y-66040000D01*
X186157170Y-64416775D01*
X185796839Y-64625353D01*
X185635000Y-65027260D01*
X185635000Y-64474615D01*
X185525393Y-64210000D01*
X186352502Y-64210000D01*
X186336775Y-64237170D01*
X186336775Y-64237170D01*
G37*
X186336775Y-64237170D02*
X187960000Y-65860395D01*
X189583225Y-64237170D01*
X189567498Y-64210000D01*
X189790000Y-64210000D01*
X189790000Y-64432502D01*
X189762830Y-64416775D01*
X188139605Y-66040000D01*
X189762830Y-67663225D01*
X189790000Y-67647498D01*
X189790001Y-82212503D01*
X189762830Y-82196775D01*
X188139605Y-83820000D01*
X189762830Y-85443225D01*
X189790001Y-85427497D01*
X189790001Y-85650000D01*
X189567498Y-85650000D01*
X189583225Y-85622830D01*
X187960000Y-83999605D01*
X186336775Y-85622830D01*
X186352502Y-85650000D01*
X185552701Y-85650000D01*
X185664092Y-85090000D01*
X185596804Y-84751719D01*
X185796839Y-85234647D01*
X186157170Y-85443225D01*
X187780395Y-83820000D01*
X187766253Y-83805858D01*
X187945858Y-83626253D01*
X187960000Y-83640395D01*
X189583225Y-82017170D01*
X189374647Y-81656839D01*
X188439157Y-81280138D01*
X187617527Y-81288261D01*
X189353367Y-79552422D01*
X189412746Y-79512746D01*
X189452422Y-79453367D01*
X189452424Y-79453365D01*
X189569935Y-79277498D01*
X189569935Y-79277497D01*
X189569936Y-79277496D01*
X189611200Y-79070046D01*
X189611200Y-79070043D01*
X189625132Y-79000001D01*
X189611200Y-78929959D01*
X189611200Y-72370041D01*
X189625132Y-72299999D01*
X189611200Y-72229955D01*
X189611200Y-72229954D01*
X189569936Y-72022504D01*
X189557293Y-72003582D01*
X189452424Y-71846635D01*
X189452420Y-71846631D01*
X189412745Y-71787254D01*
X189353369Y-71747580D01*
X185448619Y-67842830D01*
X186336775Y-67842830D01*
X186545353Y-68203161D01*
X187480843Y-68579862D01*
X188489279Y-68569892D01*
X189374647Y-68203161D01*
X189583225Y-67842830D01*
X187960000Y-66219605D01*
X186336775Y-67842830D01*
X185448619Y-67842830D01*
X184861200Y-67255412D01*
X184861200Y-66082764D01*
X184991185Y-66028922D01*
X185408922Y-65611185D01*
X185420363Y-65583565D01*
X185430108Y-66569279D01*
X185796839Y-67454647D01*
X186157170Y-67663225D01*
X187780395Y-66040000D01*
X186157170Y-64416775D01*
X185796839Y-64625353D01*
X185635000Y-65027260D01*
X185635000Y-64474615D01*
X185525393Y-64210000D01*
X186352502Y-64210000D01*
X186336775Y-64237170D01*
G36*
X153316775Y-64237170D02*
X154940000Y-65860395D01*
X156563225Y-64237170D01*
X156547498Y-64210000D01*
X159887299Y-64210000D01*
X159775908Y-64770000D01*
X159860241Y-65193971D01*
X156746634Y-68307578D01*
X156687254Y-68347255D01*
X156647578Y-68406634D01*
X156647576Y-68406636D01*
X156570267Y-68522337D01*
X156530064Y-68582505D01*
X156488800Y-68789955D01*
X156488800Y-68789959D01*
X156474868Y-68860000D01*
X156488800Y-68930041D01*
X156488801Y-79853963D01*
X156446342Y-79896422D01*
X156311000Y-80223167D01*
X156311000Y-80576833D01*
X156446342Y-80903578D01*
X156696422Y-81153658D01*
X156988804Y-81274766D01*
X156988804Y-81429963D01*
X156974872Y-81500004D01*
X156988804Y-81570045D01*
X156988804Y-81570049D01*
X157030068Y-81777499D01*
X157030069Y-81777500D01*
X157147580Y-81953368D01*
X157147582Y-81953370D01*
X157187258Y-82012749D01*
X157246638Y-82052426D01*
X159858842Y-84664630D01*
X159805000Y-84794615D01*
X159805000Y-85385385D01*
X159914607Y-85650000D01*
X156547498Y-85650000D01*
X156563225Y-85622830D01*
X154940000Y-83999605D01*
X153316775Y-85622830D01*
X153332502Y-85650000D01*
X153110000Y-85650000D01*
X153110000Y-85427498D01*
X153137170Y-85443225D01*
X154760395Y-83820000D01*
X155119605Y-83820000D01*
X156742830Y-85443225D01*
X157103161Y-85234647D01*
X157479862Y-84299157D01*
X157469892Y-83290721D01*
X157103161Y-82405353D01*
X156742830Y-82196775D01*
X155119605Y-83820000D01*
X154760395Y-83820000D01*
X153137170Y-82196775D01*
X153110000Y-82212502D01*
X153110000Y-82017170D01*
X153316775Y-82017170D01*
X154940000Y-83640395D01*
X156563225Y-82017170D01*
X156354647Y-81656839D01*
X155419157Y-81280138D01*
X154410721Y-81290108D01*
X153525353Y-81656839D01*
X153316775Y-82017170D01*
X153110000Y-82017170D01*
X153110000Y-67842830D01*
X153316775Y-67842830D01*
X153525353Y-68203161D01*
X154460843Y-68579862D01*
X155469279Y-68569892D01*
X156354647Y-68203161D01*
X156563225Y-67842830D01*
X154940000Y-66219605D01*
X153316775Y-67842830D01*
X153110000Y-67842830D01*
X153110000Y-67647498D01*
X153137170Y-67663225D01*
X154760395Y-66040000D01*
X155119605Y-66040000D01*
X156742830Y-67663225D01*
X157103161Y-67454647D01*
X157479862Y-66519157D01*
X157469892Y-65510721D01*
X157103161Y-64625353D01*
X156742830Y-64416775D01*
X155119605Y-66040000D01*
X154760395Y-66040000D01*
X153137170Y-64416775D01*
X153110000Y-64432502D01*
X153110000Y-64210000D01*
X153332502Y-64210000D01*
X153316775Y-64237170D01*
X153316775Y-64237170D01*
G37*
X153316775Y-64237170D02*
X154940000Y-65860395D01*
X156563225Y-64237170D01*
X156547498Y-64210000D01*
X159887299Y-64210000D01*
X159775908Y-64770000D01*
X159860241Y-65193971D01*
X156746634Y-68307578D01*
X156687254Y-68347255D01*
X156647578Y-68406634D01*
X156647576Y-68406636D01*
X156570267Y-68522337D01*
X156530064Y-68582505D01*
X156488800Y-68789955D01*
X156488800Y-68789959D01*
X156474868Y-68860000D01*
X156488800Y-68930041D01*
X156488801Y-79853963D01*
X156446342Y-79896422D01*
X156311000Y-80223167D01*
X156311000Y-80576833D01*
X156446342Y-80903578D01*
X156696422Y-81153658D01*
X156988804Y-81274766D01*
X156988804Y-81429963D01*
X156974872Y-81500004D01*
X156988804Y-81570045D01*
X156988804Y-81570049D01*
X157030068Y-81777499D01*
X157030069Y-81777500D01*
X157147580Y-81953368D01*
X157147582Y-81953370D01*
X157187258Y-82012749D01*
X157246638Y-82052426D01*
X159858842Y-84664630D01*
X159805000Y-84794615D01*
X159805000Y-85385385D01*
X159914607Y-85650000D01*
X156547498Y-85650000D01*
X156563225Y-85622830D01*
X154940000Y-83999605D01*
X153316775Y-85622830D01*
X153332502Y-85650000D01*
X153110000Y-85650000D01*
X153110000Y-85427498D01*
X153137170Y-85443225D01*
X154760395Y-83820000D01*
X155119605Y-83820000D01*
X156742830Y-85443225D01*
X157103161Y-85234647D01*
X157479862Y-84299157D01*
X157469892Y-83290721D01*
X157103161Y-82405353D01*
X156742830Y-82196775D01*
X155119605Y-83820000D01*
X154760395Y-83820000D01*
X153137170Y-82196775D01*
X153110000Y-82212502D01*
X153110000Y-82017170D01*
X153316775Y-82017170D01*
X154940000Y-83640395D01*
X156563225Y-82017170D01*
X156354647Y-81656839D01*
X155419157Y-81280138D01*
X154410721Y-81290108D01*
X153525353Y-81656839D01*
X153316775Y-82017170D01*
X153110000Y-82017170D01*
X153110000Y-67842830D01*
X153316775Y-67842830D01*
X153525353Y-68203161D01*
X154460843Y-68579862D01*
X155469279Y-68569892D01*
X156354647Y-68203161D01*
X156563225Y-67842830D01*
X154940000Y-66219605D01*
X153316775Y-67842830D01*
X153110000Y-67842830D01*
X153110000Y-67647498D01*
X153137170Y-67663225D01*
X154760395Y-66040000D01*
X155119605Y-66040000D01*
X156742830Y-67663225D01*
X157103161Y-67454647D01*
X157479862Y-66519157D01*
X157469892Y-65510721D01*
X157103161Y-64625353D01*
X156742830Y-64416775D01*
X155119605Y-66040000D01*
X154760395Y-66040000D01*
X153137170Y-64416775D01*
X153110000Y-64432502D01*
X153110000Y-64210000D01*
X153332502Y-64210000D01*
X153316775Y-64237170D01*
G36*
X183510996Y-70416785D02*
X183510996Y-70476833D01*
X183646338Y-70803578D01*
X183896418Y-71053658D01*
X184223163Y-71189000D01*
X184257466Y-71189000D01*
X184346342Y-71403566D01*
X184596422Y-71653646D01*
X184914558Y-71785422D01*
X185046342Y-72103578D01*
X185296422Y-72353658D01*
X185623167Y-72489000D01*
X185976833Y-72489000D01*
X186303578Y-72353658D01*
X186553658Y-72103578D01*
X186616063Y-71952918D01*
X187259247Y-72596102D01*
X187258921Y-72596428D01*
X187123579Y-72923173D01*
X187123579Y-73276839D01*
X187258921Y-73603584D01*
X187509001Y-73853664D01*
X187783989Y-73967568D01*
X187783990Y-76585221D01*
X185508212Y-78861000D01*
X185448167Y-78861000D01*
X185121422Y-78996342D01*
X184871342Y-79246422D01*
X184736000Y-79573167D01*
X184736000Y-79926833D01*
X184871342Y-80253578D01*
X185121422Y-80503658D01*
X185448167Y-80639000D01*
X185801833Y-80639000D01*
X186128578Y-80503658D01*
X186378658Y-80253578D01*
X186514000Y-79926833D01*
X186514000Y-79866788D01*
X188188801Y-78191988D01*
X188188801Y-78705410D01*
X184605412Y-82288800D01*
X179296036Y-82288800D01*
X179253578Y-82246342D01*
X178926833Y-82111000D01*
X178573167Y-82111000D01*
X178246422Y-82246342D01*
X177996342Y-82496422D01*
X177861000Y-82823167D01*
X177861000Y-83176833D01*
X177996342Y-83503578D01*
X178246422Y-83753658D01*
X178339406Y-83792173D01*
X177999375Y-84019375D01*
X177800000Y-84317761D01*
X177600625Y-84019375D01*
X177109418Y-83691161D01*
X176676256Y-83605000D01*
X176383744Y-83605000D01*
X175950582Y-83691161D01*
X175459375Y-84019375D01*
X175260000Y-84317761D01*
X175060625Y-84019375D01*
X174569418Y-83691161D01*
X174136256Y-83605000D01*
X173843744Y-83605000D01*
X173410582Y-83691161D01*
X172919375Y-84019375D01*
X172720000Y-84317761D01*
X172520625Y-84019375D01*
X172029418Y-83691161D01*
X171596256Y-83605000D01*
X171303744Y-83605000D01*
X170870582Y-83691161D01*
X170379375Y-84019375D01*
X170180000Y-84317761D01*
X169980625Y-84019375D01*
X169489418Y-83691161D01*
X169056256Y-83605000D01*
X168763744Y-83605000D01*
X168330582Y-83691161D01*
X167839375Y-84019375D01*
X167640000Y-84317761D01*
X167440625Y-84019375D01*
X166949418Y-83691161D01*
X166516256Y-83605000D01*
X166223744Y-83605000D01*
X165790582Y-83691161D01*
X165299375Y-84019375D01*
X165086157Y-84338478D01*
X165025183Y-84208642D01*
X164596924Y-83818355D01*
X164186890Y-83648524D01*
X163957000Y-83769845D01*
X163957000Y-84963000D01*
X163977000Y-84963000D01*
X163977000Y-85217000D01*
X163957000Y-85217000D01*
X163957000Y-85237000D01*
X163703000Y-85237000D01*
X163703000Y-85217000D01*
X163683000Y-85217000D01*
X163683000Y-84963000D01*
X163703000Y-84963000D01*
X163703000Y-83769845D01*
X163473110Y-83648524D01*
X163063076Y-83818355D01*
X162634817Y-84208642D01*
X162580335Y-84324653D01*
X162548922Y-84248815D01*
X162131185Y-83831078D01*
X161585385Y-83605000D01*
X160994615Y-83605000D01*
X160864630Y-83658842D01*
X158411204Y-81205416D01*
X158411204Y-74176036D01*
X158453662Y-74133578D01*
X158589004Y-73806833D01*
X158589004Y-73746788D01*
X159012625Y-73323167D01*
X159861000Y-73323167D01*
X159861000Y-73676833D01*
X159996342Y-74003578D01*
X160038800Y-74046036D01*
X160038801Y-80669954D01*
X160024868Y-80740000D01*
X160080065Y-81017496D01*
X160197576Y-81193364D01*
X160197579Y-81193367D01*
X160237255Y-81252746D01*
X160296634Y-81292422D01*
X160909000Y-81904789D01*
X160909000Y-81964833D01*
X161044342Y-82291578D01*
X161294422Y-82541658D01*
X161621167Y-82677000D01*
X161974833Y-82677000D01*
X162301578Y-82541658D01*
X162551658Y-82291578D01*
X162687000Y-81964833D01*
X162687000Y-81611167D01*
X162551658Y-81284422D01*
X162301578Y-81034342D01*
X161974833Y-80899000D01*
X161914789Y-80899000D01*
X161461200Y-80445412D01*
X161461200Y-74046036D01*
X161503658Y-74003578D01*
X161639000Y-73676833D01*
X161639000Y-73323167D01*
X161503658Y-72996422D01*
X161253578Y-72746342D01*
X160926833Y-72611000D01*
X160573167Y-72611000D01*
X160246422Y-72746342D01*
X159996342Y-72996422D01*
X159861000Y-73323167D01*
X159012625Y-73323167D01*
X160674589Y-71661204D01*
X165811000Y-71661204D01*
X165811000Y-71676837D01*
X165946342Y-72003582D01*
X166196422Y-72253662D01*
X166523167Y-72389004D01*
X166876833Y-72389004D01*
X167203578Y-72253662D01*
X167246036Y-72211204D01*
X174804955Y-72211204D01*
X174874996Y-72225136D01*
X174945037Y-72211204D01*
X174945042Y-72211204D01*
X175152492Y-72169940D01*
X175387742Y-72012750D01*
X175427420Y-71953368D01*
X177075000Y-70305788D01*
X177338801Y-70569590D01*
X177338800Y-80803964D01*
X177296342Y-80846422D01*
X177161000Y-81173167D01*
X177161000Y-81526833D01*
X177296342Y-81853578D01*
X177546422Y-82103658D01*
X177873167Y-82239000D01*
X178226833Y-82239000D01*
X178553578Y-82103658D01*
X178803658Y-81853578D01*
X178939000Y-81526833D01*
X178939000Y-81173167D01*
X178803658Y-80846422D01*
X178761200Y-80803964D01*
X178761200Y-70345041D01*
X178775132Y-70274999D01*
X178761200Y-70204957D01*
X178761200Y-70204954D01*
X178722660Y-70011200D01*
X183105412Y-70011200D01*
X183510996Y-70416785D01*
X183510996Y-70416785D01*
G37*
X183510996Y-70416785D02*
X183510996Y-70476833D01*
X183646338Y-70803578D01*
X183896418Y-71053658D01*
X184223163Y-71189000D01*
X184257466Y-71189000D01*
X184346342Y-71403566D01*
X184596422Y-71653646D01*
X184914558Y-71785422D01*
X185046342Y-72103578D01*
X185296422Y-72353658D01*
X185623167Y-72489000D01*
X185976833Y-72489000D01*
X186303578Y-72353658D01*
X186553658Y-72103578D01*
X186616063Y-71952918D01*
X187259247Y-72596102D01*
X187258921Y-72596428D01*
X187123579Y-72923173D01*
X187123579Y-73276839D01*
X187258921Y-73603584D01*
X187509001Y-73853664D01*
X187783989Y-73967568D01*
X187783990Y-76585221D01*
X185508212Y-78861000D01*
X185448167Y-78861000D01*
X185121422Y-78996342D01*
X184871342Y-79246422D01*
X184736000Y-79573167D01*
X184736000Y-79926833D01*
X184871342Y-80253578D01*
X185121422Y-80503658D01*
X185448167Y-80639000D01*
X185801833Y-80639000D01*
X186128578Y-80503658D01*
X186378658Y-80253578D01*
X186514000Y-79926833D01*
X186514000Y-79866788D01*
X188188801Y-78191988D01*
X188188801Y-78705410D01*
X184605412Y-82288800D01*
X179296036Y-82288800D01*
X179253578Y-82246342D01*
X178926833Y-82111000D01*
X178573167Y-82111000D01*
X178246422Y-82246342D01*
X177996342Y-82496422D01*
X177861000Y-82823167D01*
X177861000Y-83176833D01*
X177996342Y-83503578D01*
X178246422Y-83753658D01*
X178339406Y-83792173D01*
X177999375Y-84019375D01*
X177800000Y-84317761D01*
X177600625Y-84019375D01*
X177109418Y-83691161D01*
X176676256Y-83605000D01*
X176383744Y-83605000D01*
X175950582Y-83691161D01*
X175459375Y-84019375D01*
X175260000Y-84317761D01*
X175060625Y-84019375D01*
X174569418Y-83691161D01*
X174136256Y-83605000D01*
X173843744Y-83605000D01*
X173410582Y-83691161D01*
X172919375Y-84019375D01*
X172720000Y-84317761D01*
X172520625Y-84019375D01*
X172029418Y-83691161D01*
X171596256Y-83605000D01*
X171303744Y-83605000D01*
X170870582Y-83691161D01*
X170379375Y-84019375D01*
X170180000Y-84317761D01*
X169980625Y-84019375D01*
X169489418Y-83691161D01*
X169056256Y-83605000D01*
X168763744Y-83605000D01*
X168330582Y-83691161D01*
X167839375Y-84019375D01*
X167640000Y-84317761D01*
X167440625Y-84019375D01*
X166949418Y-83691161D01*
X166516256Y-83605000D01*
X166223744Y-83605000D01*
X165790582Y-83691161D01*
X165299375Y-84019375D01*
X165086157Y-84338478D01*
X165025183Y-84208642D01*
X164596924Y-83818355D01*
X164186890Y-83648524D01*
X163957000Y-83769845D01*
X163957000Y-84963000D01*
X163977000Y-84963000D01*
X163977000Y-85217000D01*
X163957000Y-85217000D01*
X163957000Y-85237000D01*
X163703000Y-85237000D01*
X163703000Y-85217000D01*
X163683000Y-85217000D01*
X163683000Y-84963000D01*
X163703000Y-84963000D01*
X163703000Y-83769845D01*
X163473110Y-83648524D01*
X163063076Y-83818355D01*
X162634817Y-84208642D01*
X162580335Y-84324653D01*
X162548922Y-84248815D01*
X162131185Y-83831078D01*
X161585385Y-83605000D01*
X160994615Y-83605000D01*
X160864630Y-83658842D01*
X158411204Y-81205416D01*
X158411204Y-74176036D01*
X158453662Y-74133578D01*
X158589004Y-73806833D01*
X158589004Y-73746788D01*
X159012625Y-73323167D01*
X159861000Y-73323167D01*
X159861000Y-73676833D01*
X159996342Y-74003578D01*
X160038800Y-74046036D01*
X160038801Y-80669954D01*
X160024868Y-80740000D01*
X160080065Y-81017496D01*
X160197576Y-81193364D01*
X160197579Y-81193367D01*
X160237255Y-81252746D01*
X160296634Y-81292422D01*
X160909000Y-81904789D01*
X160909000Y-81964833D01*
X161044342Y-82291578D01*
X161294422Y-82541658D01*
X161621167Y-82677000D01*
X161974833Y-82677000D01*
X162301578Y-82541658D01*
X162551658Y-82291578D01*
X162687000Y-81964833D01*
X162687000Y-81611167D01*
X162551658Y-81284422D01*
X162301578Y-81034342D01*
X161974833Y-80899000D01*
X161914789Y-80899000D01*
X161461200Y-80445412D01*
X161461200Y-74046036D01*
X161503658Y-74003578D01*
X161639000Y-73676833D01*
X161639000Y-73323167D01*
X161503658Y-72996422D01*
X161253578Y-72746342D01*
X160926833Y-72611000D01*
X160573167Y-72611000D01*
X160246422Y-72746342D01*
X159996342Y-72996422D01*
X159861000Y-73323167D01*
X159012625Y-73323167D01*
X160674589Y-71661204D01*
X165811000Y-71661204D01*
X165811000Y-71676837D01*
X165946342Y-72003582D01*
X166196422Y-72253662D01*
X166523167Y-72389004D01*
X166876833Y-72389004D01*
X167203578Y-72253662D01*
X167246036Y-72211204D01*
X174804955Y-72211204D01*
X174874996Y-72225136D01*
X174945037Y-72211204D01*
X174945042Y-72211204D01*
X175152492Y-72169940D01*
X175387742Y-72012750D01*
X175427420Y-71953368D01*
X177075000Y-70305788D01*
X177338801Y-70569590D01*
X177338800Y-80803964D01*
X177296342Y-80846422D01*
X177161000Y-81173167D01*
X177161000Y-81526833D01*
X177296342Y-81853578D01*
X177546422Y-82103658D01*
X177873167Y-82239000D01*
X178226833Y-82239000D01*
X178553578Y-82103658D01*
X178803658Y-81853578D01*
X178939000Y-81526833D01*
X178939000Y-81173167D01*
X178803658Y-80846422D01*
X178761200Y-80803964D01*
X178761200Y-70345041D01*
X178775132Y-70274999D01*
X178761200Y-70204957D01*
X178761200Y-70204954D01*
X178722660Y-70011200D01*
X183105412Y-70011200D01*
X183510996Y-70416785D01*
G36*
X162777200Y-67262989D02*
X162816876Y-67322368D01*
X162876255Y-67362044D01*
X162876257Y-67362046D01*
X163052124Y-67479557D01*
X163052125Y-67479557D01*
X163052126Y-67479558D01*
X163259576Y-67520822D01*
X163259579Y-67520822D01*
X163329621Y-67534754D01*
X163399663Y-67520822D01*
X181321836Y-67520822D01*
X182389814Y-68588800D01*
X177621036Y-68588800D01*
X177578578Y-68546342D01*
X177251833Y-68411000D01*
X176898167Y-68411000D01*
X176571422Y-68546342D01*
X176321342Y-68796422D01*
X176186000Y-69123167D01*
X176186000Y-69183212D01*
X174580408Y-70788804D01*
X174089000Y-70788804D01*
X174089000Y-70773171D01*
X173953658Y-70446426D01*
X173703578Y-70196346D01*
X173376833Y-70061004D01*
X173023167Y-70061004D01*
X172696422Y-70196346D01*
X172653964Y-70238804D01*
X160450042Y-70238804D01*
X160380000Y-70224872D01*
X160309958Y-70238804D01*
X160309954Y-70238804D01*
X160102504Y-70280068D01*
X160072680Y-70299996D01*
X159926635Y-70397580D01*
X159926633Y-70397582D01*
X159867254Y-70437258D01*
X159827578Y-70496637D01*
X157911200Y-72413016D01*
X157911200Y-69154588D01*
X160866029Y-66199759D01*
X161143744Y-66255000D01*
X161436256Y-66255000D01*
X161713971Y-66199759D01*
X162777200Y-67262989D01*
X162777200Y-67262989D01*
G37*
X162777200Y-67262989D02*
X162816876Y-67322368D01*
X162876255Y-67362044D01*
X162876257Y-67362046D01*
X163052124Y-67479557D01*
X163052125Y-67479557D01*
X163052126Y-67479558D01*
X163259576Y-67520822D01*
X163259579Y-67520822D01*
X163329621Y-67534754D01*
X163399663Y-67520822D01*
X181321836Y-67520822D01*
X182389814Y-68588800D01*
X177621036Y-68588800D01*
X177578578Y-68546342D01*
X177251833Y-68411000D01*
X176898167Y-68411000D01*
X176571422Y-68546342D01*
X176321342Y-68796422D01*
X176186000Y-69123167D01*
X176186000Y-69183212D01*
X174580408Y-70788804D01*
X174089000Y-70788804D01*
X174089000Y-70773171D01*
X173953658Y-70446426D01*
X173703578Y-70196346D01*
X173376833Y-70061004D01*
X173023167Y-70061004D01*
X172696422Y-70196346D01*
X172653964Y-70238804D01*
X160450042Y-70238804D01*
X160380000Y-70224872D01*
X160309958Y-70238804D01*
X160309954Y-70238804D01*
X160102504Y-70280068D01*
X160072680Y-70299996D01*
X159926635Y-70397580D01*
X159926633Y-70397582D01*
X159867254Y-70437258D01*
X159827578Y-70496637D01*
X157911200Y-72413016D01*
X157911200Y-69154588D01*
X160866029Y-66199759D01*
X161143744Y-66255000D01*
X161436256Y-66255000D01*
X161713971Y-66199759D01*
X162777200Y-67262989D01*
G04 #@! TD*
M02*
