G04 #@! TF.GenerationSoftware,KiCad,Pcbnew,(5.0.1-3-g963ef8bb5)*
G04 #@! TF.CreationDate,2018-11-24T11:15:19+01:00*
G04 #@! TF.ProjectId,FT232H,4654323332482E6B696361645F706362,rev?*
G04 #@! TF.SameCoordinates,Original*
G04 #@! TF.FileFunction,Legend,Bot*
G04 #@! TF.FilePolarity,Positive*
%FSLAX46Y46*%
G04 Gerber Fmt 4.6, Leading zero omitted, Abs format (unit mm)*
G04 Created by KiCad (PCBNEW (5.0.1-3-g963ef8bb5)) date Saturday, 24 November 2018 at 11:15:19*
%MOMM*%
%LPD*%
G01*
G04 APERTURE LIST*
%ADD10C,0.300000*%
%ADD11C,0.010000*%
G04 APERTURE END LIST*
D10*
X181178571Y-71657142D02*
X179678571Y-71657142D01*
X180392857Y-71657142D02*
X180392857Y-72514285D01*
X181178571Y-72514285D02*
X179678571Y-72514285D01*
X180392857Y-73728571D02*
X180464285Y-73942857D01*
X180535714Y-74014285D01*
X180678571Y-74085714D01*
X180892857Y-74085714D01*
X181035714Y-74014285D01*
X181107142Y-73942857D01*
X181178571Y-73800000D01*
X181178571Y-73228571D01*
X179678571Y-73228571D01*
X179678571Y-73728571D01*
X179750000Y-73871428D01*
X179821428Y-73942857D01*
X179964285Y-74014285D01*
X180107142Y-74014285D01*
X180250000Y-73942857D01*
X180321428Y-73871428D01*
X180392857Y-73728571D01*
X180392857Y-73228571D01*
X181178571Y-74800000D02*
X181178571Y-75085714D01*
X181107142Y-75228571D01*
X181035714Y-75300000D01*
X180821428Y-75442857D01*
X180535714Y-75514285D01*
X179964285Y-75514285D01*
X179821428Y-75442857D01*
X179750000Y-75371428D01*
X179678571Y-75228571D01*
X179678571Y-74942857D01*
X179750000Y-74800000D01*
X179821428Y-74728571D01*
X179964285Y-74657142D01*
X180321428Y-74657142D01*
X180464285Y-74728571D01*
X180535714Y-74800000D01*
X180607142Y-74942857D01*
X180607142Y-75228571D01*
X180535714Y-75371428D01*
X180464285Y-75442857D01*
X180321428Y-75514285D01*
X179750000Y-76942857D02*
X179678571Y-76800000D01*
X179678571Y-76585714D01*
X179750000Y-76371428D01*
X179892857Y-76228571D01*
X180035714Y-76157142D01*
X180321428Y-76085714D01*
X180535714Y-76085714D01*
X180821428Y-76157142D01*
X180964285Y-76228571D01*
X181107142Y-76371428D01*
X181178571Y-76585714D01*
X181178571Y-76728571D01*
X181107142Y-76942857D01*
X181035714Y-77014285D01*
X180535714Y-77014285D01*
X180535714Y-76728571D01*
X181178571Y-77657142D02*
X179678571Y-77657142D01*
X179678571Y-78228571D01*
X179750000Y-78371428D01*
X179821428Y-78442857D01*
X179964285Y-78514285D01*
X180178571Y-78514285D01*
X180321428Y-78442857D01*
X180392857Y-78371428D01*
X180464285Y-78228571D01*
X180464285Y-77657142D01*
X181035714Y-80014285D02*
X181107142Y-79942857D01*
X181178571Y-79728571D01*
X181178571Y-79585714D01*
X181107142Y-79371428D01*
X180964285Y-79228571D01*
X180821428Y-79157142D01*
X180535714Y-79085714D01*
X180321428Y-79085714D01*
X180035714Y-79157142D01*
X179892857Y-79228571D01*
X179750000Y-79371428D01*
X179678571Y-79585714D01*
X179678571Y-79728571D01*
X179750000Y-79942857D01*
X179821428Y-80014285D01*
D11*
G04 #@! TO.C,REF\002A\002A*
G36*
X166660122Y-73287776D02*
X166554388Y-73288355D01*
X166477868Y-73289922D01*
X166425628Y-73292972D01*
X166392737Y-73297996D01*
X166374263Y-73305489D01*
X166365273Y-73315944D01*
X166360837Y-73329853D01*
X166360406Y-73331654D01*
X166353667Y-73364145D01*
X166341192Y-73428252D01*
X166324281Y-73517151D01*
X166304229Y-73624019D01*
X166282336Y-73742033D01*
X166281571Y-73746178D01*
X166259641Y-73861831D01*
X166239123Y-73964014D01*
X166221341Y-74046598D01*
X166207619Y-74103456D01*
X166199282Y-74128458D01*
X166198884Y-74128901D01*
X166174323Y-74141110D01*
X166123685Y-74161456D01*
X166057905Y-74185545D01*
X166057539Y-74185674D01*
X165974683Y-74216818D01*
X165877000Y-74256491D01*
X165784923Y-74296381D01*
X165780566Y-74298353D01*
X165630593Y-74366420D01*
X165298502Y-74139639D01*
X165196626Y-74070504D01*
X165104343Y-74008697D01*
X165026997Y-73957733D01*
X164969936Y-73921127D01*
X164938505Y-73902394D01*
X164935521Y-73901004D01*
X164912679Y-73907190D01*
X164870018Y-73937035D01*
X164805872Y-73991947D01*
X164718579Y-74073334D01*
X164629465Y-74159922D01*
X164543559Y-74245247D01*
X164466673Y-74323108D01*
X164403436Y-74388697D01*
X164358477Y-74437205D01*
X164336424Y-74463825D01*
X164335604Y-74465195D01*
X164333166Y-74483463D01*
X164342350Y-74513295D01*
X164365426Y-74558721D01*
X164404663Y-74623770D01*
X164462330Y-74712470D01*
X164539205Y-74826657D01*
X164607430Y-74927162D01*
X164668418Y-75017303D01*
X164718644Y-75091849D01*
X164754584Y-75145565D01*
X164772713Y-75173218D01*
X164773854Y-75175095D01*
X164771641Y-75201590D01*
X164754862Y-75253086D01*
X164726858Y-75319851D01*
X164716878Y-75341172D01*
X164673328Y-75436159D01*
X164626866Y-75543937D01*
X164589123Y-75637192D01*
X164561927Y-75706406D01*
X164540325Y-75759006D01*
X164527842Y-75786497D01*
X164526291Y-75788616D01*
X164503332Y-75792124D01*
X164449214Y-75801738D01*
X164371132Y-75816089D01*
X164276281Y-75833807D01*
X164171857Y-75853525D01*
X164065056Y-75873874D01*
X163963074Y-75893486D01*
X163873106Y-75910991D01*
X163802347Y-75925022D01*
X163757994Y-75934209D01*
X163747115Y-75936807D01*
X163735878Y-75943218D01*
X163727395Y-75957697D01*
X163721286Y-75985133D01*
X163717168Y-76030411D01*
X163714659Y-76098420D01*
X163713379Y-76194047D01*
X163712946Y-76322180D01*
X163712923Y-76374701D01*
X163712923Y-76801845D01*
X163815500Y-76822091D01*
X163872569Y-76833070D01*
X163957731Y-76849095D01*
X164060628Y-76868233D01*
X164170904Y-76888551D01*
X164201385Y-76894132D01*
X164303145Y-76913917D01*
X164391795Y-76933373D01*
X164459892Y-76950697D01*
X164499996Y-76964088D01*
X164506677Y-76968079D01*
X164523081Y-76996342D01*
X164546601Y-77051109D01*
X164572684Y-77121588D01*
X164577858Y-77136769D01*
X164612044Y-77230896D01*
X164654477Y-77337101D01*
X164696003Y-77432473D01*
X164696208Y-77432916D01*
X164765360Y-77582525D01*
X164310488Y-78251617D01*
X164602500Y-78544116D01*
X164690820Y-78631170D01*
X164771375Y-78707909D01*
X164839640Y-78770237D01*
X164891092Y-78814056D01*
X164921206Y-78835270D01*
X164925526Y-78836616D01*
X164950889Y-78826016D01*
X165002642Y-78796547D01*
X165075132Y-78751705D01*
X165162706Y-78694984D01*
X165257388Y-78631462D01*
X165353484Y-78566668D01*
X165439163Y-78510287D01*
X165508984Y-78465788D01*
X165557506Y-78436639D01*
X165579218Y-78426308D01*
X165605707Y-78435050D01*
X165655938Y-78458087D01*
X165719549Y-78490631D01*
X165726292Y-78494249D01*
X165811954Y-78537210D01*
X165870694Y-78558279D01*
X165907228Y-78558503D01*
X165926269Y-78538928D01*
X165926380Y-78538654D01*
X165935898Y-78515472D01*
X165958597Y-78460441D01*
X165992718Y-78377822D01*
X166036500Y-78271872D01*
X166088184Y-78146852D01*
X166146008Y-78007020D01*
X166202009Y-77871637D01*
X166263553Y-77722234D01*
X166320061Y-77583832D01*
X166369839Y-77460673D01*
X166411194Y-77357002D01*
X166442432Y-77277059D01*
X166461859Y-77225088D01*
X166467846Y-77205692D01*
X166452832Y-77183443D01*
X166413561Y-77147982D01*
X166361193Y-77108887D01*
X166212059Y-76985245D01*
X166095489Y-76843522D01*
X166012882Y-76686704D01*
X165965634Y-76517775D01*
X165955143Y-76339722D01*
X165962769Y-76257539D01*
X166004318Y-76087031D01*
X166075877Y-75936459D01*
X166173005Y-75807309D01*
X166291266Y-75701064D01*
X166426220Y-75619210D01*
X166573429Y-75563232D01*
X166728456Y-75534615D01*
X166886861Y-75534844D01*
X167044206Y-75565405D01*
X167196054Y-75627782D01*
X167337965Y-75723460D01*
X167397197Y-75777572D01*
X167510797Y-75916520D01*
X167589894Y-76068361D01*
X167635014Y-76228667D01*
X167646684Y-76393012D01*
X167625431Y-76556971D01*
X167571780Y-76716118D01*
X167486260Y-76866025D01*
X167369395Y-77002267D01*
X167238807Y-77108887D01*
X167184412Y-77149642D01*
X167145986Y-77184718D01*
X167132154Y-77205726D01*
X167139397Y-77228635D01*
X167159995Y-77283365D01*
X167192254Y-77365672D01*
X167234479Y-77471315D01*
X167284977Y-77596050D01*
X167342052Y-77735636D01*
X167398146Y-77871670D01*
X167460033Y-78021201D01*
X167517356Y-78159767D01*
X167568356Y-78283107D01*
X167611273Y-78386964D01*
X167644347Y-78467080D01*
X167665819Y-78519195D01*
X167673775Y-78538654D01*
X167692571Y-78558423D01*
X167728926Y-78558365D01*
X167787521Y-78537441D01*
X167873032Y-78494613D01*
X167873708Y-78494249D01*
X167938093Y-78461012D01*
X167990139Y-78436802D01*
X168019488Y-78426404D01*
X168020783Y-78426308D01*
X168042876Y-78436855D01*
X168091652Y-78466184D01*
X168161669Y-78510827D01*
X168247486Y-78567314D01*
X168342612Y-78631462D01*
X168439460Y-78696411D01*
X168526747Y-78752896D01*
X168598819Y-78797421D01*
X168650023Y-78826490D01*
X168674474Y-78836616D01*
X168696990Y-78823307D01*
X168742258Y-78786112D01*
X168805756Y-78729128D01*
X168882961Y-78656449D01*
X168969349Y-78572171D01*
X168997601Y-78544016D01*
X169289713Y-78251416D01*
X169067369Y-77925104D01*
X168999798Y-77824897D01*
X168940493Y-77734963D01*
X168892783Y-77660510D01*
X168859993Y-77606751D01*
X168845452Y-77578894D01*
X168845026Y-77576912D01*
X168852692Y-77550655D01*
X168873311Y-77497837D01*
X168903315Y-77427310D01*
X168924375Y-77380093D01*
X168963752Y-77289694D01*
X169000835Y-77198366D01*
X169029585Y-77121200D01*
X169037395Y-77097692D01*
X169059583Y-77034916D01*
X169081273Y-76986411D01*
X169093187Y-76968079D01*
X169119477Y-76956859D01*
X169176858Y-76940954D01*
X169257882Y-76922167D01*
X169355105Y-76902299D01*
X169398615Y-76894132D01*
X169509104Y-76873829D01*
X169615084Y-76854170D01*
X169706199Y-76837088D01*
X169772092Y-76824518D01*
X169784500Y-76822091D01*
X169887077Y-76801845D01*
X169887077Y-76374701D01*
X169886847Y-76234246D01*
X169885901Y-76127979D01*
X169883859Y-76051013D01*
X169880338Y-75998460D01*
X169874957Y-75965433D01*
X169867334Y-75947045D01*
X169857088Y-75938408D01*
X169852885Y-75936807D01*
X169827530Y-75931127D01*
X169771516Y-75919795D01*
X169692036Y-75904179D01*
X169596288Y-75885647D01*
X169491467Y-75865569D01*
X169384768Y-75845312D01*
X169283387Y-75826246D01*
X169194521Y-75809739D01*
X169125363Y-75797159D01*
X169083111Y-75789875D01*
X169073710Y-75788616D01*
X169065193Y-75771763D01*
X169046340Y-75726870D01*
X169020676Y-75662430D01*
X169010877Y-75637192D01*
X168971352Y-75539686D01*
X168924808Y-75431959D01*
X168883123Y-75341172D01*
X168852450Y-75271753D01*
X168832044Y-75214710D01*
X168825232Y-75179777D01*
X168826318Y-75175095D01*
X168840715Y-75152991D01*
X168873588Y-75103831D01*
X168921410Y-75032848D01*
X168980652Y-74945278D01*
X169047785Y-74846357D01*
X169061059Y-74826830D01*
X169138954Y-74711140D01*
X169196213Y-74623044D01*
X169235119Y-74558486D01*
X169257956Y-74513411D01*
X169267006Y-74483763D01*
X169264552Y-74465485D01*
X169264489Y-74465369D01*
X169245173Y-74441361D01*
X169202449Y-74394947D01*
X169140949Y-74330937D01*
X169065302Y-74254145D01*
X168980139Y-74169382D01*
X168970535Y-74159922D01*
X168863210Y-74055989D01*
X168780385Y-73979675D01*
X168720395Y-73929571D01*
X168681577Y-73904270D01*
X168664480Y-73901004D01*
X168639527Y-73915250D01*
X168587745Y-73948156D01*
X168514480Y-73996208D01*
X168425080Y-74055890D01*
X168324889Y-74123688D01*
X168301499Y-74139639D01*
X167969407Y-74366420D01*
X167819435Y-74298353D01*
X167728230Y-74258685D01*
X167630331Y-74218791D01*
X167546169Y-74186983D01*
X167542462Y-74185674D01*
X167476631Y-74161576D01*
X167425884Y-74141200D01*
X167401158Y-74128936D01*
X167401116Y-74128901D01*
X167393271Y-74106734D01*
X167379934Y-74052217D01*
X167362430Y-73971480D01*
X167342083Y-73870650D01*
X167320218Y-73755856D01*
X167318429Y-73746178D01*
X167296496Y-73627904D01*
X167276360Y-73520542D01*
X167259320Y-73430917D01*
X167246672Y-73365851D01*
X167239716Y-73332168D01*
X167239594Y-73331654D01*
X167235361Y-73317325D01*
X167227129Y-73306507D01*
X167209967Y-73298706D01*
X167178942Y-73293429D01*
X167129122Y-73290182D01*
X167055576Y-73288472D01*
X166953371Y-73287807D01*
X166817575Y-73287693D01*
X166800000Y-73287692D01*
X166660122Y-73287776D01*
X166660122Y-73287776D01*
G37*
X166660122Y-73287776D02*
X166554388Y-73288355D01*
X166477868Y-73289922D01*
X166425628Y-73292972D01*
X166392737Y-73297996D01*
X166374263Y-73305489D01*
X166365273Y-73315944D01*
X166360837Y-73329853D01*
X166360406Y-73331654D01*
X166353667Y-73364145D01*
X166341192Y-73428252D01*
X166324281Y-73517151D01*
X166304229Y-73624019D01*
X166282336Y-73742033D01*
X166281571Y-73746178D01*
X166259641Y-73861831D01*
X166239123Y-73964014D01*
X166221341Y-74046598D01*
X166207619Y-74103456D01*
X166199282Y-74128458D01*
X166198884Y-74128901D01*
X166174323Y-74141110D01*
X166123685Y-74161456D01*
X166057905Y-74185545D01*
X166057539Y-74185674D01*
X165974683Y-74216818D01*
X165877000Y-74256491D01*
X165784923Y-74296381D01*
X165780566Y-74298353D01*
X165630593Y-74366420D01*
X165298502Y-74139639D01*
X165196626Y-74070504D01*
X165104343Y-74008697D01*
X165026997Y-73957733D01*
X164969936Y-73921127D01*
X164938505Y-73902394D01*
X164935521Y-73901004D01*
X164912679Y-73907190D01*
X164870018Y-73937035D01*
X164805872Y-73991947D01*
X164718579Y-74073334D01*
X164629465Y-74159922D01*
X164543559Y-74245247D01*
X164466673Y-74323108D01*
X164403436Y-74388697D01*
X164358477Y-74437205D01*
X164336424Y-74463825D01*
X164335604Y-74465195D01*
X164333166Y-74483463D01*
X164342350Y-74513295D01*
X164365426Y-74558721D01*
X164404663Y-74623770D01*
X164462330Y-74712470D01*
X164539205Y-74826657D01*
X164607430Y-74927162D01*
X164668418Y-75017303D01*
X164718644Y-75091849D01*
X164754584Y-75145565D01*
X164772713Y-75173218D01*
X164773854Y-75175095D01*
X164771641Y-75201590D01*
X164754862Y-75253086D01*
X164726858Y-75319851D01*
X164716878Y-75341172D01*
X164673328Y-75436159D01*
X164626866Y-75543937D01*
X164589123Y-75637192D01*
X164561927Y-75706406D01*
X164540325Y-75759006D01*
X164527842Y-75786497D01*
X164526291Y-75788616D01*
X164503332Y-75792124D01*
X164449214Y-75801738D01*
X164371132Y-75816089D01*
X164276281Y-75833807D01*
X164171857Y-75853525D01*
X164065056Y-75873874D01*
X163963074Y-75893486D01*
X163873106Y-75910991D01*
X163802347Y-75925022D01*
X163757994Y-75934209D01*
X163747115Y-75936807D01*
X163735878Y-75943218D01*
X163727395Y-75957697D01*
X163721286Y-75985133D01*
X163717168Y-76030411D01*
X163714659Y-76098420D01*
X163713379Y-76194047D01*
X163712946Y-76322180D01*
X163712923Y-76374701D01*
X163712923Y-76801845D01*
X163815500Y-76822091D01*
X163872569Y-76833070D01*
X163957731Y-76849095D01*
X164060628Y-76868233D01*
X164170904Y-76888551D01*
X164201385Y-76894132D01*
X164303145Y-76913917D01*
X164391795Y-76933373D01*
X164459892Y-76950697D01*
X164499996Y-76964088D01*
X164506677Y-76968079D01*
X164523081Y-76996342D01*
X164546601Y-77051109D01*
X164572684Y-77121588D01*
X164577858Y-77136769D01*
X164612044Y-77230896D01*
X164654477Y-77337101D01*
X164696003Y-77432473D01*
X164696208Y-77432916D01*
X164765360Y-77582525D01*
X164310488Y-78251617D01*
X164602500Y-78544116D01*
X164690820Y-78631170D01*
X164771375Y-78707909D01*
X164839640Y-78770237D01*
X164891092Y-78814056D01*
X164921206Y-78835270D01*
X164925526Y-78836616D01*
X164950889Y-78826016D01*
X165002642Y-78796547D01*
X165075132Y-78751705D01*
X165162706Y-78694984D01*
X165257388Y-78631462D01*
X165353484Y-78566668D01*
X165439163Y-78510287D01*
X165508984Y-78465788D01*
X165557506Y-78436639D01*
X165579218Y-78426308D01*
X165605707Y-78435050D01*
X165655938Y-78458087D01*
X165719549Y-78490631D01*
X165726292Y-78494249D01*
X165811954Y-78537210D01*
X165870694Y-78558279D01*
X165907228Y-78558503D01*
X165926269Y-78538928D01*
X165926380Y-78538654D01*
X165935898Y-78515472D01*
X165958597Y-78460441D01*
X165992718Y-78377822D01*
X166036500Y-78271872D01*
X166088184Y-78146852D01*
X166146008Y-78007020D01*
X166202009Y-77871637D01*
X166263553Y-77722234D01*
X166320061Y-77583832D01*
X166369839Y-77460673D01*
X166411194Y-77357002D01*
X166442432Y-77277059D01*
X166461859Y-77225088D01*
X166467846Y-77205692D01*
X166452832Y-77183443D01*
X166413561Y-77147982D01*
X166361193Y-77108887D01*
X166212059Y-76985245D01*
X166095489Y-76843522D01*
X166012882Y-76686704D01*
X165965634Y-76517775D01*
X165955143Y-76339722D01*
X165962769Y-76257539D01*
X166004318Y-76087031D01*
X166075877Y-75936459D01*
X166173005Y-75807309D01*
X166291266Y-75701064D01*
X166426220Y-75619210D01*
X166573429Y-75563232D01*
X166728456Y-75534615D01*
X166886861Y-75534844D01*
X167044206Y-75565405D01*
X167196054Y-75627782D01*
X167337965Y-75723460D01*
X167397197Y-75777572D01*
X167510797Y-75916520D01*
X167589894Y-76068361D01*
X167635014Y-76228667D01*
X167646684Y-76393012D01*
X167625431Y-76556971D01*
X167571780Y-76716118D01*
X167486260Y-76866025D01*
X167369395Y-77002267D01*
X167238807Y-77108887D01*
X167184412Y-77149642D01*
X167145986Y-77184718D01*
X167132154Y-77205726D01*
X167139397Y-77228635D01*
X167159995Y-77283365D01*
X167192254Y-77365672D01*
X167234479Y-77471315D01*
X167284977Y-77596050D01*
X167342052Y-77735636D01*
X167398146Y-77871670D01*
X167460033Y-78021201D01*
X167517356Y-78159767D01*
X167568356Y-78283107D01*
X167611273Y-78386964D01*
X167644347Y-78467080D01*
X167665819Y-78519195D01*
X167673775Y-78538654D01*
X167692571Y-78558423D01*
X167728926Y-78558365D01*
X167787521Y-78537441D01*
X167873032Y-78494613D01*
X167873708Y-78494249D01*
X167938093Y-78461012D01*
X167990139Y-78436802D01*
X168019488Y-78426404D01*
X168020783Y-78426308D01*
X168042876Y-78436855D01*
X168091652Y-78466184D01*
X168161669Y-78510827D01*
X168247486Y-78567314D01*
X168342612Y-78631462D01*
X168439460Y-78696411D01*
X168526747Y-78752896D01*
X168598819Y-78797421D01*
X168650023Y-78826490D01*
X168674474Y-78836616D01*
X168696990Y-78823307D01*
X168742258Y-78786112D01*
X168805756Y-78729128D01*
X168882961Y-78656449D01*
X168969349Y-78572171D01*
X168997601Y-78544016D01*
X169289713Y-78251416D01*
X169067369Y-77925104D01*
X168999798Y-77824897D01*
X168940493Y-77734963D01*
X168892783Y-77660510D01*
X168859993Y-77606751D01*
X168845452Y-77578894D01*
X168845026Y-77576912D01*
X168852692Y-77550655D01*
X168873311Y-77497837D01*
X168903315Y-77427310D01*
X168924375Y-77380093D01*
X168963752Y-77289694D01*
X169000835Y-77198366D01*
X169029585Y-77121200D01*
X169037395Y-77097692D01*
X169059583Y-77034916D01*
X169081273Y-76986411D01*
X169093187Y-76968079D01*
X169119477Y-76956859D01*
X169176858Y-76940954D01*
X169257882Y-76922167D01*
X169355105Y-76902299D01*
X169398615Y-76894132D01*
X169509104Y-76873829D01*
X169615084Y-76854170D01*
X169706199Y-76837088D01*
X169772092Y-76824518D01*
X169784500Y-76822091D01*
X169887077Y-76801845D01*
X169887077Y-76374701D01*
X169886847Y-76234246D01*
X169885901Y-76127979D01*
X169883859Y-76051013D01*
X169880338Y-75998460D01*
X169874957Y-75965433D01*
X169867334Y-75947045D01*
X169857088Y-75938408D01*
X169852885Y-75936807D01*
X169827530Y-75931127D01*
X169771516Y-75919795D01*
X169692036Y-75904179D01*
X169596288Y-75885647D01*
X169491467Y-75865569D01*
X169384768Y-75845312D01*
X169283387Y-75826246D01*
X169194521Y-75809739D01*
X169125363Y-75797159D01*
X169083111Y-75789875D01*
X169073710Y-75788616D01*
X169065193Y-75771763D01*
X169046340Y-75726870D01*
X169020676Y-75662430D01*
X169010877Y-75637192D01*
X168971352Y-75539686D01*
X168924808Y-75431959D01*
X168883123Y-75341172D01*
X168852450Y-75271753D01*
X168832044Y-75214710D01*
X168825232Y-75179777D01*
X168826318Y-75175095D01*
X168840715Y-75152991D01*
X168873588Y-75103831D01*
X168921410Y-75032848D01*
X168980652Y-74945278D01*
X169047785Y-74846357D01*
X169061059Y-74826830D01*
X169138954Y-74711140D01*
X169196213Y-74623044D01*
X169235119Y-74558486D01*
X169257956Y-74513411D01*
X169267006Y-74483763D01*
X169264552Y-74465485D01*
X169264489Y-74465369D01*
X169245173Y-74441361D01*
X169202449Y-74394947D01*
X169140949Y-74330937D01*
X169065302Y-74254145D01*
X168980139Y-74169382D01*
X168970535Y-74159922D01*
X168863210Y-74055989D01*
X168780385Y-73979675D01*
X168720395Y-73929571D01*
X168681577Y-73904270D01*
X168664480Y-73901004D01*
X168639527Y-73915250D01*
X168587745Y-73948156D01*
X168514480Y-73996208D01*
X168425080Y-74055890D01*
X168324889Y-74123688D01*
X168301499Y-74139639D01*
X167969407Y-74366420D01*
X167819435Y-74298353D01*
X167728230Y-74258685D01*
X167630331Y-74218791D01*
X167546169Y-74186983D01*
X167542462Y-74185674D01*
X167476631Y-74161576D01*
X167425884Y-74141200D01*
X167401158Y-74128936D01*
X167401116Y-74128901D01*
X167393271Y-74106734D01*
X167379934Y-74052217D01*
X167362430Y-73971480D01*
X167342083Y-73870650D01*
X167320218Y-73755856D01*
X167318429Y-73746178D01*
X167296496Y-73627904D01*
X167276360Y-73520542D01*
X167259320Y-73430917D01*
X167246672Y-73365851D01*
X167239716Y-73332168D01*
X167239594Y-73331654D01*
X167235361Y-73317325D01*
X167227129Y-73306507D01*
X167209967Y-73298706D01*
X167178942Y-73293429D01*
X167129122Y-73290182D01*
X167055576Y-73288472D01*
X166953371Y-73287807D01*
X166817575Y-73287693D01*
X166800000Y-73287692D01*
X166660122Y-73287776D01*
G36*
X162554776Y-79647838D02*
X162477472Y-79698361D01*
X162440186Y-79743590D01*
X162410647Y-79825663D01*
X162408301Y-79890607D01*
X162413615Y-79977445D01*
X162613885Y-80065103D01*
X162711261Y-80109887D01*
X162774887Y-80145913D01*
X162807971Y-80177117D01*
X162813720Y-80207436D01*
X162795342Y-80240805D01*
X162775077Y-80262923D01*
X162716111Y-80298393D01*
X162651976Y-80300879D01*
X162593074Y-80273235D01*
X162549803Y-80218320D01*
X162542064Y-80198928D01*
X162504994Y-80138364D01*
X162462346Y-80112552D01*
X162403846Y-80090471D01*
X162403846Y-80174184D01*
X162409018Y-80231150D01*
X162429277Y-80279189D01*
X162471738Y-80334346D01*
X162478049Y-80341514D01*
X162525280Y-80390585D01*
X162565879Y-80416920D01*
X162616672Y-80429035D01*
X162658780Y-80433003D01*
X162734098Y-80433991D01*
X162787714Y-80421466D01*
X162821162Y-80402869D01*
X162873732Y-80361975D01*
X162910121Y-80317748D01*
X162933150Y-80262126D01*
X162945641Y-80187047D01*
X162950413Y-80084449D01*
X162950794Y-80032376D01*
X162949499Y-79969948D01*
X162831529Y-79969948D01*
X162830161Y-80003438D01*
X162826751Y-80008923D01*
X162804247Y-80001472D01*
X162755818Y-79981753D01*
X162691092Y-79953718D01*
X162677557Y-79947692D01*
X162595756Y-79906096D01*
X162550688Y-79869538D01*
X162540783Y-79835296D01*
X162564474Y-79800648D01*
X162584040Y-79785339D01*
X162654640Y-79754721D01*
X162720720Y-79759780D01*
X162776041Y-79797151D01*
X162814364Y-79863473D01*
X162826651Y-79916116D01*
X162831529Y-79969948D01*
X162949499Y-79969948D01*
X162948270Y-79910720D01*
X162938968Y-79820710D01*
X162920540Y-79755167D01*
X162890640Y-79706912D01*
X162846920Y-79668767D01*
X162827859Y-79656440D01*
X162741274Y-79624336D01*
X162646478Y-79622316D01*
X162554776Y-79647838D01*
X162554776Y-79647838D01*
G37*
X162554776Y-79647838D02*
X162477472Y-79698361D01*
X162440186Y-79743590D01*
X162410647Y-79825663D01*
X162408301Y-79890607D01*
X162413615Y-79977445D01*
X162613885Y-80065103D01*
X162711261Y-80109887D01*
X162774887Y-80145913D01*
X162807971Y-80177117D01*
X162813720Y-80207436D01*
X162795342Y-80240805D01*
X162775077Y-80262923D01*
X162716111Y-80298393D01*
X162651976Y-80300879D01*
X162593074Y-80273235D01*
X162549803Y-80218320D01*
X162542064Y-80198928D01*
X162504994Y-80138364D01*
X162462346Y-80112552D01*
X162403846Y-80090471D01*
X162403846Y-80174184D01*
X162409018Y-80231150D01*
X162429277Y-80279189D01*
X162471738Y-80334346D01*
X162478049Y-80341514D01*
X162525280Y-80390585D01*
X162565879Y-80416920D01*
X162616672Y-80429035D01*
X162658780Y-80433003D01*
X162734098Y-80433991D01*
X162787714Y-80421466D01*
X162821162Y-80402869D01*
X162873732Y-80361975D01*
X162910121Y-80317748D01*
X162933150Y-80262126D01*
X162945641Y-80187047D01*
X162950413Y-80084449D01*
X162950794Y-80032376D01*
X162949499Y-79969948D01*
X162831529Y-79969948D01*
X162830161Y-80003438D01*
X162826751Y-80008923D01*
X162804247Y-80001472D01*
X162755818Y-79981753D01*
X162691092Y-79953718D01*
X162677557Y-79947692D01*
X162595756Y-79906096D01*
X162550688Y-79869538D01*
X162540783Y-79835296D01*
X162564474Y-79800648D01*
X162584040Y-79785339D01*
X162654640Y-79754721D01*
X162720720Y-79759780D01*
X162776041Y-79797151D01*
X162814364Y-79863473D01*
X162826651Y-79916116D01*
X162831529Y-79969948D01*
X162949499Y-79969948D01*
X162948270Y-79910720D01*
X162938968Y-79820710D01*
X162920540Y-79755167D01*
X162890640Y-79706912D01*
X162846920Y-79668767D01*
X162827859Y-79656440D01*
X162741274Y-79624336D01*
X162646478Y-79622316D01*
X162554776Y-79647838D01*
G36*
X163229193Y-79636782D02*
X163205839Y-79646988D01*
X163150098Y-79691134D01*
X163102431Y-79754967D01*
X163072952Y-79823087D01*
X163068154Y-79856670D01*
X163084240Y-79903556D01*
X163119525Y-79928365D01*
X163157356Y-79943387D01*
X163174679Y-79946155D01*
X163183114Y-79926066D01*
X163199770Y-79882351D01*
X163207077Y-79862598D01*
X163248052Y-79794271D01*
X163307378Y-79760191D01*
X163383448Y-79761239D01*
X163389082Y-79762581D01*
X163429695Y-79781836D01*
X163459552Y-79819375D01*
X163479945Y-79879809D01*
X163492164Y-79967751D01*
X163497500Y-80087813D01*
X163498000Y-80151698D01*
X163498248Y-80252403D01*
X163499874Y-80321054D01*
X163504199Y-80364673D01*
X163512546Y-80390282D01*
X163526235Y-80404903D01*
X163546589Y-80415558D01*
X163547766Y-80416095D01*
X163586962Y-80432667D01*
X163606381Y-80438769D01*
X163609365Y-80420319D01*
X163611919Y-80369323D01*
X163613860Y-80292308D01*
X163615003Y-80195805D01*
X163615231Y-80125184D01*
X163614068Y-79988525D01*
X163609521Y-79884851D01*
X163600001Y-79808108D01*
X163583919Y-79752246D01*
X163559687Y-79711212D01*
X163525714Y-79678954D01*
X163492167Y-79656440D01*
X163411501Y-79626476D01*
X163317619Y-79619718D01*
X163229193Y-79636782D01*
X163229193Y-79636782D01*
G37*
X163229193Y-79636782D02*
X163205839Y-79646988D01*
X163150098Y-79691134D01*
X163102431Y-79754967D01*
X163072952Y-79823087D01*
X163068154Y-79856670D01*
X163084240Y-79903556D01*
X163119525Y-79928365D01*
X163157356Y-79943387D01*
X163174679Y-79946155D01*
X163183114Y-79926066D01*
X163199770Y-79882351D01*
X163207077Y-79862598D01*
X163248052Y-79794271D01*
X163307378Y-79760191D01*
X163383448Y-79761239D01*
X163389082Y-79762581D01*
X163429695Y-79781836D01*
X163459552Y-79819375D01*
X163479945Y-79879809D01*
X163492164Y-79967751D01*
X163497500Y-80087813D01*
X163498000Y-80151698D01*
X163498248Y-80252403D01*
X163499874Y-80321054D01*
X163504199Y-80364673D01*
X163512546Y-80390282D01*
X163526235Y-80404903D01*
X163546589Y-80415558D01*
X163547766Y-80416095D01*
X163586962Y-80432667D01*
X163606381Y-80438769D01*
X163609365Y-80420319D01*
X163611919Y-80369323D01*
X163613860Y-80292308D01*
X163615003Y-80195805D01*
X163615231Y-80125184D01*
X163614068Y-79988525D01*
X163609521Y-79884851D01*
X163600001Y-79808108D01*
X163583919Y-79752246D01*
X163559687Y-79711212D01*
X163525714Y-79678954D01*
X163492167Y-79656440D01*
X163411501Y-79626476D01*
X163317619Y-79619718D01*
X163229193Y-79636782D01*
G36*
X163912667Y-79633528D02*
X163856410Y-79659117D01*
X163812253Y-79690124D01*
X163779899Y-79724795D01*
X163757562Y-79769520D01*
X163743454Y-79830692D01*
X163735789Y-79914701D01*
X163732780Y-80027940D01*
X163732462Y-80102509D01*
X163732462Y-80393420D01*
X163782227Y-80416095D01*
X163821424Y-80432667D01*
X163840843Y-80438769D01*
X163844558Y-80420610D01*
X163847505Y-80371648D01*
X163849309Y-80300153D01*
X163849692Y-80243385D01*
X163851339Y-80161371D01*
X163855778Y-80096309D01*
X163862260Y-80056467D01*
X163867410Y-80048000D01*
X163902023Y-80056646D01*
X163956360Y-80078823D01*
X164019278Y-80108886D01*
X164079632Y-80141192D01*
X164126279Y-80170098D01*
X164148074Y-80189961D01*
X164148161Y-80190175D01*
X164146286Y-80226935D01*
X164129475Y-80262026D01*
X164099961Y-80290528D01*
X164056884Y-80300061D01*
X164020068Y-80298950D01*
X163967926Y-80298133D01*
X163940556Y-80310349D01*
X163924118Y-80342624D01*
X163922045Y-80348710D01*
X163914919Y-80394739D01*
X163933976Y-80422687D01*
X163983647Y-80436007D01*
X164037303Y-80438470D01*
X164133858Y-80420210D01*
X164183841Y-80394131D01*
X164245571Y-80332868D01*
X164278310Y-80257670D01*
X164281247Y-80178211D01*
X164253576Y-80104167D01*
X164211953Y-80057769D01*
X164170396Y-80031793D01*
X164105078Y-79998907D01*
X164028962Y-79965557D01*
X164016274Y-79960461D01*
X163932667Y-79923565D01*
X163884470Y-79891046D01*
X163868970Y-79858718D01*
X163883450Y-79822394D01*
X163908308Y-79794000D01*
X163967061Y-79759039D01*
X164031707Y-79756417D01*
X164090992Y-79783358D01*
X164133661Y-79837088D01*
X164139261Y-79850950D01*
X164171867Y-79901936D01*
X164219470Y-79939787D01*
X164279539Y-79970850D01*
X164279539Y-79882768D01*
X164276003Y-79828951D01*
X164260844Y-79786534D01*
X164227232Y-79741279D01*
X164194965Y-79706420D01*
X164144791Y-79657062D01*
X164105807Y-79630547D01*
X164063936Y-79619911D01*
X164016540Y-79618154D01*
X163912667Y-79633528D01*
X163912667Y-79633528D01*
G37*
X163912667Y-79633528D02*
X163856410Y-79659117D01*
X163812253Y-79690124D01*
X163779899Y-79724795D01*
X163757562Y-79769520D01*
X163743454Y-79830692D01*
X163735789Y-79914701D01*
X163732780Y-80027940D01*
X163732462Y-80102509D01*
X163732462Y-80393420D01*
X163782227Y-80416095D01*
X163821424Y-80432667D01*
X163840843Y-80438769D01*
X163844558Y-80420610D01*
X163847505Y-80371648D01*
X163849309Y-80300153D01*
X163849692Y-80243385D01*
X163851339Y-80161371D01*
X163855778Y-80096309D01*
X163862260Y-80056467D01*
X163867410Y-80048000D01*
X163902023Y-80056646D01*
X163956360Y-80078823D01*
X164019278Y-80108886D01*
X164079632Y-80141192D01*
X164126279Y-80170098D01*
X164148074Y-80189961D01*
X164148161Y-80190175D01*
X164146286Y-80226935D01*
X164129475Y-80262026D01*
X164099961Y-80290528D01*
X164056884Y-80300061D01*
X164020068Y-80298950D01*
X163967926Y-80298133D01*
X163940556Y-80310349D01*
X163924118Y-80342624D01*
X163922045Y-80348710D01*
X163914919Y-80394739D01*
X163933976Y-80422687D01*
X163983647Y-80436007D01*
X164037303Y-80438470D01*
X164133858Y-80420210D01*
X164183841Y-80394131D01*
X164245571Y-80332868D01*
X164278310Y-80257670D01*
X164281247Y-80178211D01*
X164253576Y-80104167D01*
X164211953Y-80057769D01*
X164170396Y-80031793D01*
X164105078Y-79998907D01*
X164028962Y-79965557D01*
X164016274Y-79960461D01*
X163932667Y-79923565D01*
X163884470Y-79891046D01*
X163868970Y-79858718D01*
X163883450Y-79822394D01*
X163908308Y-79794000D01*
X163967061Y-79759039D01*
X164031707Y-79756417D01*
X164090992Y-79783358D01*
X164133661Y-79837088D01*
X164139261Y-79850950D01*
X164171867Y-79901936D01*
X164219470Y-79939787D01*
X164279539Y-79970850D01*
X164279539Y-79882768D01*
X164276003Y-79828951D01*
X164260844Y-79786534D01*
X164227232Y-79741279D01*
X164194965Y-79706420D01*
X164144791Y-79657062D01*
X164105807Y-79630547D01*
X164063936Y-79619911D01*
X164016540Y-79618154D01*
X163912667Y-79633528D01*
G36*
X164404071Y-79636662D02*
X164401089Y-79688068D01*
X164398753Y-79766192D01*
X164397251Y-79864857D01*
X164396769Y-79968343D01*
X164396769Y-80318533D01*
X164458599Y-80380363D01*
X164501207Y-80418462D01*
X164538610Y-80433895D01*
X164589730Y-80432918D01*
X164610022Y-80430433D01*
X164673446Y-80423200D01*
X164725905Y-80419055D01*
X164738692Y-80418672D01*
X164781801Y-80421176D01*
X164843456Y-80427462D01*
X164867362Y-80430433D01*
X164926078Y-80435028D01*
X164965536Y-80425046D01*
X165004662Y-80394228D01*
X165018785Y-80380363D01*
X165080615Y-80318533D01*
X165080615Y-79663503D01*
X165030850Y-79640829D01*
X164987998Y-79624034D01*
X164962927Y-79618154D01*
X164956499Y-79636736D01*
X164950491Y-79688655D01*
X164945303Y-79768172D01*
X164941336Y-79869546D01*
X164939423Y-79955192D01*
X164934077Y-80292231D01*
X164887440Y-80298825D01*
X164845024Y-80294214D01*
X164824240Y-80279287D01*
X164818430Y-80251377D01*
X164813470Y-80191925D01*
X164809754Y-80108466D01*
X164807676Y-80008532D01*
X164807376Y-79957104D01*
X164807077Y-79661054D01*
X164745546Y-79639604D01*
X164701996Y-79625020D01*
X164678306Y-79618219D01*
X164677623Y-79618154D01*
X164675246Y-79636642D01*
X164672634Y-79687906D01*
X164670005Y-79765649D01*
X164667579Y-79863574D01*
X164665885Y-79955192D01*
X164660539Y-80292231D01*
X164543308Y-80292231D01*
X164537928Y-79984746D01*
X164532549Y-79677261D01*
X164475399Y-79647707D01*
X164433203Y-79627413D01*
X164408230Y-79618204D01*
X164407509Y-79618154D01*
X164404071Y-79636662D01*
X164404071Y-79636662D01*
G37*
X164404071Y-79636662D02*
X164401089Y-79688068D01*
X164398753Y-79766192D01*
X164397251Y-79864857D01*
X164396769Y-79968343D01*
X164396769Y-80318533D01*
X164458599Y-80380363D01*
X164501207Y-80418462D01*
X164538610Y-80433895D01*
X164589730Y-80432918D01*
X164610022Y-80430433D01*
X164673446Y-80423200D01*
X164725905Y-80419055D01*
X164738692Y-80418672D01*
X164781801Y-80421176D01*
X164843456Y-80427462D01*
X164867362Y-80430433D01*
X164926078Y-80435028D01*
X164965536Y-80425046D01*
X165004662Y-80394228D01*
X165018785Y-80380363D01*
X165080615Y-80318533D01*
X165080615Y-79663503D01*
X165030850Y-79640829D01*
X164987998Y-79624034D01*
X164962927Y-79618154D01*
X164956499Y-79636736D01*
X164950491Y-79688655D01*
X164945303Y-79768172D01*
X164941336Y-79869546D01*
X164939423Y-79955192D01*
X164934077Y-80292231D01*
X164887440Y-80298825D01*
X164845024Y-80294214D01*
X164824240Y-80279287D01*
X164818430Y-80251377D01*
X164813470Y-80191925D01*
X164809754Y-80108466D01*
X164807676Y-80008532D01*
X164807376Y-79957104D01*
X164807077Y-79661054D01*
X164745546Y-79639604D01*
X164701996Y-79625020D01*
X164678306Y-79618219D01*
X164677623Y-79618154D01*
X164675246Y-79636642D01*
X164672634Y-79687906D01*
X164670005Y-79765649D01*
X164667579Y-79863574D01*
X164665885Y-79955192D01*
X164660539Y-80292231D01*
X164543308Y-80292231D01*
X164537928Y-79984746D01*
X164532549Y-79677261D01*
X164475399Y-79647707D01*
X164433203Y-79627413D01*
X164408230Y-79618204D01*
X164407509Y-79618154D01*
X164404071Y-79636662D01*
G36*
X165197919Y-79780289D02*
X165198167Y-79926320D01*
X165199128Y-80038655D01*
X165201206Y-80122678D01*
X165204807Y-80183769D01*
X165210335Y-80227309D01*
X165218196Y-80258679D01*
X165228793Y-80283262D01*
X165236818Y-80297294D01*
X165303272Y-80373388D01*
X165387530Y-80421084D01*
X165480751Y-80438199D01*
X165574100Y-80422546D01*
X165629688Y-80394418D01*
X165688043Y-80345760D01*
X165727814Y-80286333D01*
X165751810Y-80208507D01*
X165762839Y-80104652D01*
X165764401Y-80028462D01*
X165764191Y-80022986D01*
X165627692Y-80022986D01*
X165626859Y-80110355D01*
X165623039Y-80168192D01*
X165614254Y-80206029D01*
X165598526Y-80233398D01*
X165579734Y-80254042D01*
X165516625Y-80293890D01*
X165448863Y-80297295D01*
X165384821Y-80264025D01*
X165379836Y-80259517D01*
X165358561Y-80236067D01*
X165345221Y-80208166D01*
X165337999Y-80166641D01*
X165335077Y-80102316D01*
X165334615Y-80031200D01*
X165335617Y-79941858D01*
X165339762Y-79882258D01*
X165348764Y-79843089D01*
X165364333Y-79815040D01*
X165377098Y-79800144D01*
X165436400Y-79762575D01*
X165504699Y-79758057D01*
X165569890Y-79786753D01*
X165582472Y-79797406D01*
X165603889Y-79821063D01*
X165617256Y-79849251D01*
X165624434Y-79891245D01*
X165627281Y-79956319D01*
X165627692Y-80022986D01*
X165764191Y-80022986D01*
X165759678Y-79905765D01*
X165743638Y-79813577D01*
X165713472Y-79744269D01*
X165666371Y-79690211D01*
X165629688Y-79662505D01*
X165563010Y-79632572D01*
X165485728Y-79618678D01*
X165413890Y-79622397D01*
X165373692Y-79637400D01*
X165357918Y-79641670D01*
X165347450Y-79625750D01*
X165340144Y-79583089D01*
X165334615Y-79518106D01*
X165328563Y-79445732D01*
X165320156Y-79402187D01*
X165304859Y-79377287D01*
X165278136Y-79360845D01*
X165261346Y-79353564D01*
X165197846Y-79326963D01*
X165197919Y-79780289D01*
X165197919Y-79780289D01*
G37*
X165197919Y-79780289D02*
X165198167Y-79926320D01*
X165199128Y-80038655D01*
X165201206Y-80122678D01*
X165204807Y-80183769D01*
X165210335Y-80227309D01*
X165218196Y-80258679D01*
X165228793Y-80283262D01*
X165236818Y-80297294D01*
X165303272Y-80373388D01*
X165387530Y-80421084D01*
X165480751Y-80438199D01*
X165574100Y-80422546D01*
X165629688Y-80394418D01*
X165688043Y-80345760D01*
X165727814Y-80286333D01*
X165751810Y-80208507D01*
X165762839Y-80104652D01*
X165764401Y-80028462D01*
X165764191Y-80022986D01*
X165627692Y-80022986D01*
X165626859Y-80110355D01*
X165623039Y-80168192D01*
X165614254Y-80206029D01*
X165598526Y-80233398D01*
X165579734Y-80254042D01*
X165516625Y-80293890D01*
X165448863Y-80297295D01*
X165384821Y-80264025D01*
X165379836Y-80259517D01*
X165358561Y-80236067D01*
X165345221Y-80208166D01*
X165337999Y-80166641D01*
X165335077Y-80102316D01*
X165334615Y-80031200D01*
X165335617Y-79941858D01*
X165339762Y-79882258D01*
X165348764Y-79843089D01*
X165364333Y-79815040D01*
X165377098Y-79800144D01*
X165436400Y-79762575D01*
X165504699Y-79758057D01*
X165569890Y-79786753D01*
X165582472Y-79797406D01*
X165603889Y-79821063D01*
X165617256Y-79849251D01*
X165624434Y-79891245D01*
X165627281Y-79956319D01*
X165627692Y-80022986D01*
X165764191Y-80022986D01*
X165759678Y-79905765D01*
X165743638Y-79813577D01*
X165713472Y-79744269D01*
X165666371Y-79690211D01*
X165629688Y-79662505D01*
X165563010Y-79632572D01*
X165485728Y-79618678D01*
X165413890Y-79622397D01*
X165373692Y-79637400D01*
X165357918Y-79641670D01*
X165347450Y-79625750D01*
X165340144Y-79583089D01*
X165334615Y-79518106D01*
X165328563Y-79445732D01*
X165320156Y-79402187D01*
X165304859Y-79377287D01*
X165278136Y-79360845D01*
X165261346Y-79353564D01*
X165197846Y-79326963D01*
X165197919Y-79780289D01*
G36*
X166086638Y-79624670D02*
X165997883Y-79657421D01*
X165925978Y-79715350D01*
X165897856Y-79756128D01*
X165867198Y-79830954D01*
X165867835Y-79885058D01*
X165900013Y-79921446D01*
X165911919Y-79927633D01*
X165963325Y-79946925D01*
X165989578Y-79941982D01*
X165998470Y-79909587D01*
X165998923Y-79891692D01*
X166015203Y-79825859D01*
X166057635Y-79779807D01*
X166116612Y-79757564D01*
X166182525Y-79763161D01*
X166236105Y-79792229D01*
X166254202Y-79808810D01*
X166267029Y-79828925D01*
X166275694Y-79859332D01*
X166281304Y-79906788D01*
X166284965Y-79978050D01*
X166287785Y-80079875D01*
X166288516Y-80112115D01*
X166291180Y-80222410D01*
X166294208Y-80300036D01*
X166298750Y-80351396D01*
X166305954Y-80382890D01*
X166316967Y-80400920D01*
X166332940Y-80411888D01*
X166343166Y-80416733D01*
X166386594Y-80433301D01*
X166412158Y-80438769D01*
X166420605Y-80420507D01*
X166425761Y-80365296D01*
X166427654Y-80272499D01*
X166426311Y-80141478D01*
X166425893Y-80121269D01*
X166422942Y-80001733D01*
X166419452Y-79914449D01*
X166414486Y-79852591D01*
X166407107Y-79809336D01*
X166396376Y-79777860D01*
X166381355Y-79751339D01*
X166373498Y-79739975D01*
X166328447Y-79689692D01*
X166278060Y-79650581D01*
X166271892Y-79647167D01*
X166181542Y-79620212D01*
X166086638Y-79624670D01*
X166086638Y-79624670D01*
G37*
X166086638Y-79624670D02*
X165997883Y-79657421D01*
X165925978Y-79715350D01*
X165897856Y-79756128D01*
X165867198Y-79830954D01*
X165867835Y-79885058D01*
X165900013Y-79921446D01*
X165911919Y-79927633D01*
X165963325Y-79946925D01*
X165989578Y-79941982D01*
X165998470Y-79909587D01*
X165998923Y-79891692D01*
X166015203Y-79825859D01*
X166057635Y-79779807D01*
X166116612Y-79757564D01*
X166182525Y-79763161D01*
X166236105Y-79792229D01*
X166254202Y-79808810D01*
X166267029Y-79828925D01*
X166275694Y-79859332D01*
X166281304Y-79906788D01*
X166284965Y-79978050D01*
X166287785Y-80079875D01*
X166288516Y-80112115D01*
X166291180Y-80222410D01*
X166294208Y-80300036D01*
X166298750Y-80351396D01*
X166305954Y-80382890D01*
X166316967Y-80400920D01*
X166332940Y-80411888D01*
X166343166Y-80416733D01*
X166386594Y-80433301D01*
X166412158Y-80438769D01*
X166420605Y-80420507D01*
X166425761Y-80365296D01*
X166427654Y-80272499D01*
X166426311Y-80141478D01*
X166425893Y-80121269D01*
X166422942Y-80001733D01*
X166419452Y-79914449D01*
X166414486Y-79852591D01*
X166407107Y-79809336D01*
X166396376Y-79777860D01*
X166381355Y-79751339D01*
X166373498Y-79739975D01*
X166328447Y-79689692D01*
X166278060Y-79650581D01*
X166271892Y-79647167D01*
X166181542Y-79620212D01*
X166086638Y-79624670D01*
G36*
X166746499Y-79626303D02*
X166669940Y-79654733D01*
X166669064Y-79655279D01*
X166621715Y-79690127D01*
X166586759Y-79730852D01*
X166562175Y-79783925D01*
X166545938Y-79855814D01*
X166536025Y-79952992D01*
X166530414Y-80081928D01*
X166529923Y-80100298D01*
X166522859Y-80377287D01*
X166582305Y-80408028D01*
X166625319Y-80428802D01*
X166651290Y-80438646D01*
X166652491Y-80438769D01*
X166656986Y-80420606D01*
X166660556Y-80371612D01*
X166662752Y-80300031D01*
X166663231Y-80242068D01*
X166663242Y-80148170D01*
X166667534Y-80089203D01*
X166682497Y-80061079D01*
X166714518Y-80059706D01*
X166769986Y-80080998D01*
X166853731Y-80120136D01*
X166915311Y-80152643D01*
X166946983Y-80180845D01*
X166956294Y-80211582D01*
X166956308Y-80213104D01*
X166940943Y-80266054D01*
X166895453Y-80294660D01*
X166825834Y-80298803D01*
X166775687Y-80298084D01*
X166749246Y-80312527D01*
X166732757Y-80347218D01*
X166723267Y-80391416D01*
X166736943Y-80416493D01*
X166742093Y-80420082D01*
X166790575Y-80434496D01*
X166858469Y-80436537D01*
X166928388Y-80426983D01*
X166977932Y-80409522D01*
X167046430Y-80351364D01*
X167085366Y-80270408D01*
X167093077Y-80207160D01*
X167087193Y-80150111D01*
X167065899Y-80103542D01*
X167023735Y-80062181D01*
X166955241Y-80020755D01*
X166854956Y-79973993D01*
X166848846Y-79971350D01*
X166758510Y-79929617D01*
X166702765Y-79895391D01*
X166678871Y-79864635D01*
X166684087Y-79833311D01*
X166715672Y-79797383D01*
X166725117Y-79789116D01*
X166788383Y-79757058D01*
X166853936Y-79758407D01*
X166911028Y-79789838D01*
X166948907Y-79848024D01*
X166952426Y-79859446D01*
X166986700Y-79914837D01*
X167030191Y-79941518D01*
X167093077Y-79967960D01*
X167093077Y-79899548D01*
X167073948Y-79800110D01*
X167017169Y-79708902D01*
X166987622Y-79678389D01*
X166920458Y-79639228D01*
X166835044Y-79621500D01*
X166746499Y-79626303D01*
X166746499Y-79626303D01*
G37*
X166746499Y-79626303D02*
X166669940Y-79654733D01*
X166669064Y-79655279D01*
X166621715Y-79690127D01*
X166586759Y-79730852D01*
X166562175Y-79783925D01*
X166545938Y-79855814D01*
X166536025Y-79952992D01*
X166530414Y-80081928D01*
X166529923Y-80100298D01*
X166522859Y-80377287D01*
X166582305Y-80408028D01*
X166625319Y-80428802D01*
X166651290Y-80438646D01*
X166652491Y-80438769D01*
X166656986Y-80420606D01*
X166660556Y-80371612D01*
X166662752Y-80300031D01*
X166663231Y-80242068D01*
X166663242Y-80148170D01*
X166667534Y-80089203D01*
X166682497Y-80061079D01*
X166714518Y-80059706D01*
X166769986Y-80080998D01*
X166853731Y-80120136D01*
X166915311Y-80152643D01*
X166946983Y-80180845D01*
X166956294Y-80211582D01*
X166956308Y-80213104D01*
X166940943Y-80266054D01*
X166895453Y-80294660D01*
X166825834Y-80298803D01*
X166775687Y-80298084D01*
X166749246Y-80312527D01*
X166732757Y-80347218D01*
X166723267Y-80391416D01*
X166736943Y-80416493D01*
X166742093Y-80420082D01*
X166790575Y-80434496D01*
X166858469Y-80436537D01*
X166928388Y-80426983D01*
X166977932Y-80409522D01*
X167046430Y-80351364D01*
X167085366Y-80270408D01*
X167093077Y-80207160D01*
X167087193Y-80150111D01*
X167065899Y-80103542D01*
X167023735Y-80062181D01*
X166955241Y-80020755D01*
X166854956Y-79973993D01*
X166848846Y-79971350D01*
X166758510Y-79929617D01*
X166702765Y-79895391D01*
X166678871Y-79864635D01*
X166684087Y-79833311D01*
X166715672Y-79797383D01*
X166725117Y-79789116D01*
X166788383Y-79757058D01*
X166853936Y-79758407D01*
X166911028Y-79789838D01*
X166948907Y-79848024D01*
X166952426Y-79859446D01*
X166986700Y-79914837D01*
X167030191Y-79941518D01*
X167093077Y-79967960D01*
X167093077Y-79899548D01*
X167073948Y-79800110D01*
X167017169Y-79708902D01*
X166987622Y-79678389D01*
X166920458Y-79639228D01*
X166835044Y-79621500D01*
X166746499Y-79626303D01*
G36*
X167640154Y-79492120D02*
X167634428Y-79571980D01*
X167627851Y-79619039D01*
X167618738Y-79639566D01*
X167605402Y-79639829D01*
X167601077Y-79637378D01*
X167543556Y-79619636D01*
X167468732Y-79620672D01*
X167392661Y-79638910D01*
X167345082Y-79662505D01*
X167296298Y-79700198D01*
X167260636Y-79742855D01*
X167236155Y-79797057D01*
X167220913Y-79869384D01*
X167212970Y-79966419D01*
X167210384Y-80094742D01*
X167210338Y-80119358D01*
X167210308Y-80395870D01*
X167271839Y-80417320D01*
X167315541Y-80431912D01*
X167339518Y-80438706D01*
X167340223Y-80438769D01*
X167342585Y-80420345D01*
X167344594Y-80369526D01*
X167346099Y-80292993D01*
X167346947Y-80197430D01*
X167347077Y-80139329D01*
X167347349Y-80024771D01*
X167348748Y-79942667D01*
X167352151Y-79886393D01*
X167358433Y-79849326D01*
X167368471Y-79824844D01*
X167383139Y-79806325D01*
X167392298Y-79797406D01*
X167455211Y-79761466D01*
X167523864Y-79758775D01*
X167586152Y-79789170D01*
X167597671Y-79800144D01*
X167614567Y-79820779D01*
X167626286Y-79845256D01*
X167633767Y-79880647D01*
X167637946Y-79934026D01*
X167639763Y-80012466D01*
X167640154Y-80120617D01*
X167640154Y-80395870D01*
X167701685Y-80417320D01*
X167745387Y-80431912D01*
X167769364Y-80438706D01*
X167770070Y-80438769D01*
X167771874Y-80420069D01*
X167773500Y-80367322D01*
X167774883Y-80285557D01*
X167775958Y-80179805D01*
X167776660Y-80055094D01*
X167776923Y-79916455D01*
X167776923Y-79381806D01*
X167649923Y-79328236D01*
X167640154Y-79492120D01*
X167640154Y-79492120D01*
G37*
X167640154Y-79492120D02*
X167634428Y-79571980D01*
X167627851Y-79619039D01*
X167618738Y-79639566D01*
X167605402Y-79639829D01*
X167601077Y-79637378D01*
X167543556Y-79619636D01*
X167468732Y-79620672D01*
X167392661Y-79638910D01*
X167345082Y-79662505D01*
X167296298Y-79700198D01*
X167260636Y-79742855D01*
X167236155Y-79797057D01*
X167220913Y-79869384D01*
X167212970Y-79966419D01*
X167210384Y-80094742D01*
X167210338Y-80119358D01*
X167210308Y-80395870D01*
X167271839Y-80417320D01*
X167315541Y-80431912D01*
X167339518Y-80438706D01*
X167340223Y-80438769D01*
X167342585Y-80420345D01*
X167344594Y-80369526D01*
X167346099Y-80292993D01*
X167346947Y-80197430D01*
X167347077Y-80139329D01*
X167347349Y-80024771D01*
X167348748Y-79942667D01*
X167352151Y-79886393D01*
X167358433Y-79849326D01*
X167368471Y-79824844D01*
X167383139Y-79806325D01*
X167392298Y-79797406D01*
X167455211Y-79761466D01*
X167523864Y-79758775D01*
X167586152Y-79789170D01*
X167597671Y-79800144D01*
X167614567Y-79820779D01*
X167626286Y-79845256D01*
X167633767Y-79880647D01*
X167637946Y-79934026D01*
X167639763Y-80012466D01*
X167640154Y-80120617D01*
X167640154Y-80395870D01*
X167701685Y-80417320D01*
X167745387Y-80431912D01*
X167769364Y-80438706D01*
X167770070Y-80438769D01*
X167771874Y-80420069D01*
X167773500Y-80367322D01*
X167774883Y-80285557D01*
X167775958Y-80179805D01*
X167776660Y-80055094D01*
X167776923Y-79916455D01*
X167776923Y-79381806D01*
X167649923Y-79328236D01*
X167640154Y-79492120D01*
G36*
X169265746Y-79599745D02*
X169188714Y-79651567D01*
X169129184Y-79726412D01*
X169093622Y-79821654D01*
X169086429Y-79891756D01*
X169087246Y-79921009D01*
X169094086Y-79943407D01*
X169112888Y-79963474D01*
X169149592Y-79985733D01*
X169210138Y-80014709D01*
X169300466Y-80054927D01*
X169300923Y-80055129D01*
X169384067Y-80093210D01*
X169452247Y-80127025D01*
X169498495Y-80152933D01*
X169515842Y-80167295D01*
X169515846Y-80167411D01*
X169500557Y-80198685D01*
X169464804Y-80233157D01*
X169423758Y-80257990D01*
X169402963Y-80262923D01*
X169346230Y-80245862D01*
X169297373Y-80203133D01*
X169273535Y-80156155D01*
X169250603Y-80121522D01*
X169205682Y-80082081D01*
X169152877Y-80048009D01*
X169106290Y-80029480D01*
X169096548Y-80028462D01*
X169085582Y-80045215D01*
X169084921Y-80088039D01*
X169092980Y-80145781D01*
X169108173Y-80207289D01*
X169128914Y-80261409D01*
X169129962Y-80263510D01*
X169192379Y-80350660D01*
X169273274Y-80409939D01*
X169365144Y-80439034D01*
X169460487Y-80435634D01*
X169551802Y-80397428D01*
X169555862Y-80394741D01*
X169627694Y-80329642D01*
X169674927Y-80244705D01*
X169701066Y-80133021D01*
X169704574Y-80101643D01*
X169710787Y-79953536D01*
X169703339Y-79884468D01*
X169515846Y-79884468D01*
X169513410Y-79927552D01*
X169500086Y-79940126D01*
X169466868Y-79930719D01*
X169414506Y-79908483D01*
X169355976Y-79880610D01*
X169354521Y-79879872D01*
X169304911Y-79853777D01*
X169285000Y-79836363D01*
X169289910Y-79818107D01*
X169310584Y-79794120D01*
X169363181Y-79759406D01*
X169419823Y-79756856D01*
X169470631Y-79782119D01*
X169505724Y-79830847D01*
X169515846Y-79884468D01*
X169703339Y-79884468D01*
X169698008Y-79835036D01*
X169665222Y-79741055D01*
X169619579Y-79675215D01*
X169537198Y-79608681D01*
X169446454Y-79575676D01*
X169353815Y-79573573D01*
X169265746Y-79599745D01*
X169265746Y-79599745D01*
G37*
X169265746Y-79599745D02*
X169188714Y-79651567D01*
X169129184Y-79726412D01*
X169093622Y-79821654D01*
X169086429Y-79891756D01*
X169087246Y-79921009D01*
X169094086Y-79943407D01*
X169112888Y-79963474D01*
X169149592Y-79985733D01*
X169210138Y-80014709D01*
X169300466Y-80054927D01*
X169300923Y-80055129D01*
X169384067Y-80093210D01*
X169452247Y-80127025D01*
X169498495Y-80152933D01*
X169515842Y-80167295D01*
X169515846Y-80167411D01*
X169500557Y-80198685D01*
X169464804Y-80233157D01*
X169423758Y-80257990D01*
X169402963Y-80262923D01*
X169346230Y-80245862D01*
X169297373Y-80203133D01*
X169273535Y-80156155D01*
X169250603Y-80121522D01*
X169205682Y-80082081D01*
X169152877Y-80048009D01*
X169106290Y-80029480D01*
X169096548Y-80028462D01*
X169085582Y-80045215D01*
X169084921Y-80088039D01*
X169092980Y-80145781D01*
X169108173Y-80207289D01*
X169128914Y-80261409D01*
X169129962Y-80263510D01*
X169192379Y-80350660D01*
X169273274Y-80409939D01*
X169365144Y-80439034D01*
X169460487Y-80435634D01*
X169551802Y-80397428D01*
X169555862Y-80394741D01*
X169627694Y-80329642D01*
X169674927Y-80244705D01*
X169701066Y-80133021D01*
X169704574Y-80101643D01*
X169710787Y-79953536D01*
X169703339Y-79884468D01*
X169515846Y-79884468D01*
X169513410Y-79927552D01*
X169500086Y-79940126D01*
X169466868Y-79930719D01*
X169414506Y-79908483D01*
X169355976Y-79880610D01*
X169354521Y-79879872D01*
X169304911Y-79853777D01*
X169285000Y-79836363D01*
X169289910Y-79818107D01*
X169310584Y-79794120D01*
X169363181Y-79759406D01*
X169419823Y-79756856D01*
X169470631Y-79782119D01*
X169505724Y-79830847D01*
X169515846Y-79884468D01*
X169703339Y-79884468D01*
X169698008Y-79835036D01*
X169665222Y-79741055D01*
X169619579Y-79675215D01*
X169537198Y-79608681D01*
X169446454Y-79575676D01*
X169353815Y-79573573D01*
X169265746Y-79599745D01*
G36*
X170783114Y-79587256D02*
X170691536Y-79635409D01*
X170623951Y-79712905D01*
X170599943Y-79762727D01*
X170581262Y-79837533D01*
X170571699Y-79932052D01*
X170570792Y-80035210D01*
X170578079Y-80135935D01*
X170593097Y-80223153D01*
X170615385Y-80285791D01*
X170622235Y-80296579D01*
X170703368Y-80377105D01*
X170799734Y-80425336D01*
X170904299Y-80439450D01*
X171010032Y-80417629D01*
X171039457Y-80404547D01*
X171096759Y-80364231D01*
X171147050Y-80310775D01*
X171151803Y-80303995D01*
X171171122Y-80271321D01*
X171183892Y-80236394D01*
X171191436Y-80190414D01*
X171195076Y-80124584D01*
X171196135Y-80030105D01*
X171196154Y-80008923D01*
X171196106Y-80002182D01*
X171000769Y-80002182D01*
X170999632Y-80091349D01*
X170995159Y-80150520D01*
X170985754Y-80188741D01*
X170969824Y-80215053D01*
X170961692Y-80223846D01*
X170914942Y-80257261D01*
X170869553Y-80255737D01*
X170823660Y-80226752D01*
X170796288Y-80195809D01*
X170780077Y-80150643D01*
X170770974Y-80079420D01*
X170770349Y-80071114D01*
X170768796Y-79942037D01*
X170785035Y-79846172D01*
X170818848Y-79784107D01*
X170870016Y-79756432D01*
X170888280Y-79754923D01*
X170936240Y-79762513D01*
X170969047Y-79788808D01*
X170989105Y-79839095D01*
X170998822Y-79918664D01*
X171000769Y-80002182D01*
X171196106Y-80002182D01*
X171195426Y-79908249D01*
X171192371Y-79837906D01*
X171185678Y-79789163D01*
X171174040Y-79753288D01*
X171156147Y-79721548D01*
X171152192Y-79715648D01*
X171085733Y-79636104D01*
X171013315Y-79589929D01*
X170925151Y-79571599D01*
X170895213Y-79570703D01*
X170783114Y-79587256D01*
X170783114Y-79587256D01*
G37*
X170783114Y-79587256D02*
X170691536Y-79635409D01*
X170623951Y-79712905D01*
X170599943Y-79762727D01*
X170581262Y-79837533D01*
X170571699Y-79932052D01*
X170570792Y-80035210D01*
X170578079Y-80135935D01*
X170593097Y-80223153D01*
X170615385Y-80285791D01*
X170622235Y-80296579D01*
X170703368Y-80377105D01*
X170799734Y-80425336D01*
X170904299Y-80439450D01*
X171010032Y-80417629D01*
X171039457Y-80404547D01*
X171096759Y-80364231D01*
X171147050Y-80310775D01*
X171151803Y-80303995D01*
X171171122Y-80271321D01*
X171183892Y-80236394D01*
X171191436Y-80190414D01*
X171195076Y-80124584D01*
X171196135Y-80030105D01*
X171196154Y-80008923D01*
X171196106Y-80002182D01*
X171000769Y-80002182D01*
X170999632Y-80091349D01*
X170995159Y-80150520D01*
X170985754Y-80188741D01*
X170969824Y-80215053D01*
X170961692Y-80223846D01*
X170914942Y-80257261D01*
X170869553Y-80255737D01*
X170823660Y-80226752D01*
X170796288Y-80195809D01*
X170780077Y-80150643D01*
X170770974Y-80079420D01*
X170770349Y-80071114D01*
X170768796Y-79942037D01*
X170785035Y-79846172D01*
X170818848Y-79784107D01*
X170870016Y-79756432D01*
X170888280Y-79754923D01*
X170936240Y-79762513D01*
X170969047Y-79788808D01*
X170989105Y-79839095D01*
X170998822Y-79918664D01*
X171000769Y-80002182D01*
X171196106Y-80002182D01*
X171195426Y-79908249D01*
X171192371Y-79837906D01*
X171185678Y-79789163D01*
X171174040Y-79753288D01*
X171156147Y-79721548D01*
X171152192Y-79715648D01*
X171085733Y-79636104D01*
X171013315Y-79589929D01*
X170925151Y-79571599D01*
X170895213Y-79570703D01*
X170783114Y-79587256D01*
G36*
X168528336Y-79595089D02*
X168465633Y-79631358D01*
X168422039Y-79667358D01*
X168390155Y-79705075D01*
X168368190Y-79751199D01*
X168354351Y-79812421D01*
X168346847Y-79895431D01*
X168343883Y-80006919D01*
X168343539Y-80087062D01*
X168343539Y-80382065D01*
X168509615Y-80456515D01*
X168519385Y-80133402D01*
X168523421Y-80012729D01*
X168527656Y-79925141D01*
X168532903Y-79864650D01*
X168539975Y-79825268D01*
X168549689Y-79801007D01*
X168562856Y-79785880D01*
X168567081Y-79782606D01*
X168631091Y-79757034D01*
X168695792Y-79767153D01*
X168734308Y-79794000D01*
X168749975Y-79813024D01*
X168760820Y-79837988D01*
X168767712Y-79875834D01*
X168771521Y-79933502D01*
X168773117Y-80017935D01*
X168773385Y-80105928D01*
X168773437Y-80216323D01*
X168775328Y-80294463D01*
X168781655Y-80347165D01*
X168795017Y-80381242D01*
X168818015Y-80403511D01*
X168853246Y-80420787D01*
X168900303Y-80438738D01*
X168951697Y-80458278D01*
X168945579Y-80111485D01*
X168943116Y-79986468D01*
X168940233Y-79894082D01*
X168936102Y-79827881D01*
X168929893Y-79781420D01*
X168920774Y-79748256D01*
X168907917Y-79721944D01*
X168892416Y-79698729D01*
X168817629Y-79624569D01*
X168726372Y-79581684D01*
X168627117Y-79571412D01*
X168528336Y-79595089D01*
X168528336Y-79595089D01*
G37*
X168528336Y-79595089D02*
X168465633Y-79631358D01*
X168422039Y-79667358D01*
X168390155Y-79705075D01*
X168368190Y-79751199D01*
X168354351Y-79812421D01*
X168346847Y-79895431D01*
X168343883Y-80006919D01*
X168343539Y-80087062D01*
X168343539Y-80382065D01*
X168509615Y-80456515D01*
X168519385Y-80133402D01*
X168523421Y-80012729D01*
X168527656Y-79925141D01*
X168532903Y-79864650D01*
X168539975Y-79825268D01*
X168549689Y-79801007D01*
X168562856Y-79785880D01*
X168567081Y-79782606D01*
X168631091Y-79757034D01*
X168695792Y-79767153D01*
X168734308Y-79794000D01*
X168749975Y-79813024D01*
X168760820Y-79837988D01*
X168767712Y-79875834D01*
X168771521Y-79933502D01*
X168773117Y-80017935D01*
X168773385Y-80105928D01*
X168773437Y-80216323D01*
X168775328Y-80294463D01*
X168781655Y-80347165D01*
X168795017Y-80381242D01*
X168818015Y-80403511D01*
X168853246Y-80420787D01*
X168900303Y-80438738D01*
X168951697Y-80458278D01*
X168945579Y-80111485D01*
X168943116Y-79986468D01*
X168940233Y-79894082D01*
X168936102Y-79827881D01*
X168929893Y-79781420D01*
X168920774Y-79748256D01*
X168907917Y-79721944D01*
X168892416Y-79698729D01*
X168817629Y-79624569D01*
X168726372Y-79581684D01*
X168627117Y-79571412D01*
X168528336Y-79595089D01*
G36*
X170031114Y-79584505D02*
X169956461Y-79621727D01*
X169890569Y-79690261D01*
X169872423Y-79715648D01*
X169852655Y-79748866D01*
X169839828Y-79784945D01*
X169832490Y-79833098D01*
X169829187Y-79902536D01*
X169828462Y-79994206D01*
X169831737Y-80119830D01*
X169843123Y-80214154D01*
X169864959Y-80284523D01*
X169899581Y-80338286D01*
X169949330Y-80382788D01*
X169952986Y-80385423D01*
X170002015Y-80412377D01*
X170061055Y-80425712D01*
X170136141Y-80429000D01*
X170258205Y-80429000D01*
X170258256Y-80547497D01*
X170259392Y-80613492D01*
X170266314Y-80652202D01*
X170284402Y-80675419D01*
X170319038Y-80694933D01*
X170327355Y-80698920D01*
X170366280Y-80717603D01*
X170396417Y-80729403D01*
X170418826Y-80730422D01*
X170434567Y-80716761D01*
X170444698Y-80684522D01*
X170450277Y-80629804D01*
X170452365Y-80548711D01*
X170452019Y-80437344D01*
X170450300Y-80291802D01*
X170449763Y-80248269D01*
X170447828Y-80098205D01*
X170446096Y-80000042D01*
X170258308Y-80000042D01*
X170257252Y-80083364D01*
X170252562Y-80137880D01*
X170241949Y-80173837D01*
X170223128Y-80201482D01*
X170210350Y-80214965D01*
X170158110Y-80254417D01*
X170111858Y-80257628D01*
X170064133Y-80225049D01*
X170062923Y-80223846D01*
X170043506Y-80198668D01*
X170031693Y-80164447D01*
X170025735Y-80111748D01*
X170023880Y-80031131D01*
X170023846Y-80013271D01*
X170028330Y-79902175D01*
X170042926Y-79825161D01*
X170069350Y-79778147D01*
X170109317Y-79757050D01*
X170132416Y-79754923D01*
X170187238Y-79764900D01*
X170224842Y-79797752D01*
X170247477Y-79857857D01*
X170257394Y-79949598D01*
X170258308Y-80000042D01*
X170446096Y-80000042D01*
X170445778Y-79982060D01*
X170443127Y-79894679D01*
X170439394Y-79830905D01*
X170434093Y-79785582D01*
X170426742Y-79753555D01*
X170416857Y-79729668D01*
X170403954Y-79708764D01*
X170398421Y-79700898D01*
X170325031Y-79626595D01*
X170232240Y-79584467D01*
X170124904Y-79572722D01*
X170031114Y-79584505D01*
X170031114Y-79584505D01*
G37*
X170031114Y-79584505D02*
X169956461Y-79621727D01*
X169890569Y-79690261D01*
X169872423Y-79715648D01*
X169852655Y-79748866D01*
X169839828Y-79784945D01*
X169832490Y-79833098D01*
X169829187Y-79902536D01*
X169828462Y-79994206D01*
X169831737Y-80119830D01*
X169843123Y-80214154D01*
X169864959Y-80284523D01*
X169899581Y-80338286D01*
X169949330Y-80382788D01*
X169952986Y-80385423D01*
X170002015Y-80412377D01*
X170061055Y-80425712D01*
X170136141Y-80429000D01*
X170258205Y-80429000D01*
X170258256Y-80547497D01*
X170259392Y-80613492D01*
X170266314Y-80652202D01*
X170284402Y-80675419D01*
X170319038Y-80694933D01*
X170327355Y-80698920D01*
X170366280Y-80717603D01*
X170396417Y-80729403D01*
X170418826Y-80730422D01*
X170434567Y-80716761D01*
X170444698Y-80684522D01*
X170450277Y-80629804D01*
X170452365Y-80548711D01*
X170452019Y-80437344D01*
X170450300Y-80291802D01*
X170449763Y-80248269D01*
X170447828Y-80098205D01*
X170446096Y-80000042D01*
X170258308Y-80000042D01*
X170257252Y-80083364D01*
X170252562Y-80137880D01*
X170241949Y-80173837D01*
X170223128Y-80201482D01*
X170210350Y-80214965D01*
X170158110Y-80254417D01*
X170111858Y-80257628D01*
X170064133Y-80225049D01*
X170062923Y-80223846D01*
X170043506Y-80198668D01*
X170031693Y-80164447D01*
X170025735Y-80111748D01*
X170023880Y-80031131D01*
X170023846Y-80013271D01*
X170028330Y-79902175D01*
X170042926Y-79825161D01*
X170069350Y-79778147D01*
X170109317Y-79757050D01*
X170132416Y-79754923D01*
X170187238Y-79764900D01*
X170224842Y-79797752D01*
X170247477Y-79857857D01*
X170257394Y-79949598D01*
X170258308Y-80000042D01*
X170446096Y-80000042D01*
X170445778Y-79982060D01*
X170443127Y-79894679D01*
X170439394Y-79830905D01*
X170434093Y-79785582D01*
X170426742Y-79753555D01*
X170416857Y-79729668D01*
X170403954Y-79708764D01*
X170398421Y-79700898D01*
X170325031Y-79626595D01*
X170232240Y-79584467D01*
X170124904Y-79572722D01*
X170031114Y-79584505D01*
G04 #@! TD*
M02*
