G04 #@! TF.GenerationSoftware,KiCad,Pcbnew,(5.0.1-3-g963ef8bb5)*
G04 #@! TF.CreationDate,2018-11-24T11:15:19+01:00*
G04 #@! TF.ProjectId,FT232H,4654323332482E6B696361645F706362,rev?*
G04 #@! TF.SameCoordinates,Original*
G04 #@! TF.FileFunction,Soldermask,Top*
G04 #@! TF.FilePolarity,Negative*
%FSLAX46Y46*%
G04 Gerber Fmt 4.6, Leading zero omitted, Abs format (unit mm)*
G04 Created by KiCad (PCBNEW (5.0.1-3-g963ef8bb5)) date Saturday, 24 November 2018 at 11:15:19*
%MOMM*%
%LPD*%
G01*
G04 APERTURE LIST*
%ADD10C,0.100000*%
G04 APERTURE END LIST*
D10*
G36*
X184238362Y-84193545D02*
X184326588Y-84202234D01*
X184439789Y-84236573D01*
X184496390Y-84253743D01*
X184634980Y-84327822D01*
X184652879Y-84337389D01*
X184688609Y-84366712D01*
X184790044Y-84449956D01*
X184864582Y-84540783D01*
X184902611Y-84587121D01*
X184902612Y-84587123D01*
X184986257Y-84743610D01*
X185003427Y-84800211D01*
X185037766Y-84913412D01*
X185055158Y-85090000D01*
X185037766Y-85266588D01*
X185008646Y-85362582D01*
X184986257Y-85436390D01*
X184945147Y-85513300D01*
X184902611Y-85592879D01*
X184873288Y-85628609D01*
X184790044Y-85730044D01*
X184717355Y-85789697D01*
X184652879Y-85842611D01*
X184652877Y-85842612D01*
X184496390Y-85926257D01*
X184439789Y-85943427D01*
X184326588Y-85977766D01*
X184238362Y-85986455D01*
X184194250Y-85990800D01*
X184105750Y-85990800D01*
X184061638Y-85986455D01*
X183973412Y-85977766D01*
X183860211Y-85943427D01*
X183803610Y-85926257D01*
X183647123Y-85842612D01*
X183647121Y-85842611D01*
X183582645Y-85789697D01*
X183509956Y-85730044D01*
X183426712Y-85628609D01*
X183397389Y-85592879D01*
X183354853Y-85513300D01*
X183313743Y-85436390D01*
X183291354Y-85362582D01*
X183262234Y-85266588D01*
X183244842Y-85090000D01*
X183262234Y-84913412D01*
X183296573Y-84800211D01*
X183313743Y-84743610D01*
X183397388Y-84587123D01*
X183397389Y-84587121D01*
X183435418Y-84540783D01*
X183509956Y-84449956D01*
X183611391Y-84366712D01*
X183647121Y-84337389D01*
X183665020Y-84327822D01*
X183803610Y-84253743D01*
X183860211Y-84236573D01*
X183973412Y-84202234D01*
X184061638Y-84193545D01*
X184105750Y-84189200D01*
X184194250Y-84189200D01*
X184238362Y-84193545D01*
X184238362Y-84193545D01*
G37*
G36*
X181698362Y-84193545D02*
X181786588Y-84202234D01*
X181899789Y-84236573D01*
X181956390Y-84253743D01*
X182094980Y-84327822D01*
X182112879Y-84337389D01*
X182148609Y-84366712D01*
X182250044Y-84449956D01*
X182324582Y-84540783D01*
X182362611Y-84587121D01*
X182362612Y-84587123D01*
X182446257Y-84743610D01*
X182463427Y-84800211D01*
X182497766Y-84913412D01*
X182515158Y-85090000D01*
X182497766Y-85266588D01*
X182468646Y-85362582D01*
X182446257Y-85436390D01*
X182405147Y-85513300D01*
X182362611Y-85592879D01*
X182333288Y-85628609D01*
X182250044Y-85730044D01*
X182177355Y-85789697D01*
X182112879Y-85842611D01*
X182112877Y-85842612D01*
X181956390Y-85926257D01*
X181899789Y-85943427D01*
X181786588Y-85977766D01*
X181698362Y-85986455D01*
X181654250Y-85990800D01*
X181565750Y-85990800D01*
X181521638Y-85986455D01*
X181433412Y-85977766D01*
X181320211Y-85943427D01*
X181263610Y-85926257D01*
X181107123Y-85842612D01*
X181107121Y-85842611D01*
X181042645Y-85789697D01*
X180969956Y-85730044D01*
X180886712Y-85628609D01*
X180857389Y-85592879D01*
X180814853Y-85513300D01*
X180773743Y-85436390D01*
X180751354Y-85362582D01*
X180722234Y-85266588D01*
X180704842Y-85090000D01*
X180722234Y-84913412D01*
X180756573Y-84800211D01*
X180773743Y-84743610D01*
X180857388Y-84587123D01*
X180857389Y-84587121D01*
X180895418Y-84540783D01*
X180969956Y-84449956D01*
X181071391Y-84366712D01*
X181107121Y-84337389D01*
X181125020Y-84327822D01*
X181263610Y-84253743D01*
X181320211Y-84236573D01*
X181433412Y-84202234D01*
X181521638Y-84193545D01*
X181565750Y-84189200D01*
X181654250Y-84189200D01*
X181698362Y-84193545D01*
X181698362Y-84193545D01*
G37*
G36*
X179158362Y-84193545D02*
X179246588Y-84202234D01*
X179359789Y-84236573D01*
X179416390Y-84253743D01*
X179554980Y-84327822D01*
X179572879Y-84337389D01*
X179608609Y-84366712D01*
X179710044Y-84449956D01*
X179784582Y-84540783D01*
X179822611Y-84587121D01*
X179822612Y-84587123D01*
X179906257Y-84743610D01*
X179923427Y-84800211D01*
X179957766Y-84913412D01*
X179975158Y-85090000D01*
X179957766Y-85266588D01*
X179928646Y-85362582D01*
X179906257Y-85436390D01*
X179865147Y-85513300D01*
X179822611Y-85592879D01*
X179793288Y-85628609D01*
X179710044Y-85730044D01*
X179637355Y-85789697D01*
X179572879Y-85842611D01*
X179572877Y-85842612D01*
X179416390Y-85926257D01*
X179359789Y-85943427D01*
X179246588Y-85977766D01*
X179158362Y-85986455D01*
X179114250Y-85990800D01*
X179025750Y-85990800D01*
X178981638Y-85986455D01*
X178893412Y-85977766D01*
X178780211Y-85943427D01*
X178723610Y-85926257D01*
X178567123Y-85842612D01*
X178567121Y-85842611D01*
X178502645Y-85789697D01*
X178429956Y-85730044D01*
X178346712Y-85628609D01*
X178317389Y-85592879D01*
X178274853Y-85513300D01*
X178233743Y-85436390D01*
X178211354Y-85362582D01*
X178182234Y-85266588D01*
X178164842Y-85090000D01*
X178182234Y-84913412D01*
X178216573Y-84800211D01*
X178233743Y-84743610D01*
X178317388Y-84587123D01*
X178317389Y-84587121D01*
X178355418Y-84540783D01*
X178429956Y-84449956D01*
X178531391Y-84366712D01*
X178567121Y-84337389D01*
X178585020Y-84327822D01*
X178723610Y-84253743D01*
X178780211Y-84236573D01*
X178893412Y-84202234D01*
X178981638Y-84193545D01*
X179025750Y-84189200D01*
X179114250Y-84189200D01*
X179158362Y-84193545D01*
X179158362Y-84193545D01*
G37*
G36*
X176618362Y-84193545D02*
X176706588Y-84202234D01*
X176819789Y-84236573D01*
X176876390Y-84253743D01*
X177014980Y-84327822D01*
X177032879Y-84337389D01*
X177068609Y-84366712D01*
X177170044Y-84449956D01*
X177244582Y-84540783D01*
X177282611Y-84587121D01*
X177282612Y-84587123D01*
X177366257Y-84743610D01*
X177383427Y-84800211D01*
X177417766Y-84913412D01*
X177435158Y-85090000D01*
X177417766Y-85266588D01*
X177388646Y-85362582D01*
X177366257Y-85436390D01*
X177325147Y-85513300D01*
X177282611Y-85592879D01*
X177253288Y-85628609D01*
X177170044Y-85730044D01*
X177097355Y-85789697D01*
X177032879Y-85842611D01*
X177032877Y-85842612D01*
X176876390Y-85926257D01*
X176819789Y-85943427D01*
X176706588Y-85977766D01*
X176618362Y-85986455D01*
X176574250Y-85990800D01*
X176485750Y-85990800D01*
X176441638Y-85986455D01*
X176353412Y-85977766D01*
X176240211Y-85943427D01*
X176183610Y-85926257D01*
X176027123Y-85842612D01*
X176027121Y-85842611D01*
X175962645Y-85789697D01*
X175889956Y-85730044D01*
X175806712Y-85628609D01*
X175777389Y-85592879D01*
X175734853Y-85513300D01*
X175693743Y-85436390D01*
X175671354Y-85362582D01*
X175642234Y-85266588D01*
X175624842Y-85090000D01*
X175642234Y-84913412D01*
X175676573Y-84800211D01*
X175693743Y-84743610D01*
X175777388Y-84587123D01*
X175777389Y-84587121D01*
X175815418Y-84540783D01*
X175889956Y-84449956D01*
X175991391Y-84366712D01*
X176027121Y-84337389D01*
X176045020Y-84327822D01*
X176183610Y-84253743D01*
X176240211Y-84236573D01*
X176353412Y-84202234D01*
X176441638Y-84193545D01*
X176485750Y-84189200D01*
X176574250Y-84189200D01*
X176618362Y-84193545D01*
X176618362Y-84193545D01*
G37*
G36*
X174078362Y-84193545D02*
X174166588Y-84202234D01*
X174279789Y-84236573D01*
X174336390Y-84253743D01*
X174474980Y-84327822D01*
X174492879Y-84337389D01*
X174528609Y-84366712D01*
X174630044Y-84449956D01*
X174704582Y-84540783D01*
X174742611Y-84587121D01*
X174742612Y-84587123D01*
X174826257Y-84743610D01*
X174843427Y-84800211D01*
X174877766Y-84913412D01*
X174895158Y-85090000D01*
X174877766Y-85266588D01*
X174848646Y-85362582D01*
X174826257Y-85436390D01*
X174785147Y-85513300D01*
X174742611Y-85592879D01*
X174713288Y-85628609D01*
X174630044Y-85730044D01*
X174557355Y-85789697D01*
X174492879Y-85842611D01*
X174492877Y-85842612D01*
X174336390Y-85926257D01*
X174279789Y-85943427D01*
X174166588Y-85977766D01*
X174078362Y-85986455D01*
X174034250Y-85990800D01*
X173945750Y-85990800D01*
X173901638Y-85986455D01*
X173813412Y-85977766D01*
X173700211Y-85943427D01*
X173643610Y-85926257D01*
X173487123Y-85842612D01*
X173487121Y-85842611D01*
X173422645Y-85789697D01*
X173349956Y-85730044D01*
X173266712Y-85628609D01*
X173237389Y-85592879D01*
X173194853Y-85513300D01*
X173153743Y-85436390D01*
X173131354Y-85362582D01*
X173102234Y-85266588D01*
X173084842Y-85090000D01*
X173102234Y-84913412D01*
X173136573Y-84800211D01*
X173153743Y-84743610D01*
X173237388Y-84587123D01*
X173237389Y-84587121D01*
X173275418Y-84540783D01*
X173349956Y-84449956D01*
X173451391Y-84366712D01*
X173487121Y-84337389D01*
X173505020Y-84327822D01*
X173643610Y-84253743D01*
X173700211Y-84236573D01*
X173813412Y-84202234D01*
X173901638Y-84193545D01*
X173945750Y-84189200D01*
X174034250Y-84189200D01*
X174078362Y-84193545D01*
X174078362Y-84193545D01*
G37*
G36*
X171538362Y-84193545D02*
X171626588Y-84202234D01*
X171739789Y-84236573D01*
X171796390Y-84253743D01*
X171934980Y-84327822D01*
X171952879Y-84337389D01*
X171988609Y-84366712D01*
X172090044Y-84449956D01*
X172164582Y-84540783D01*
X172202611Y-84587121D01*
X172202612Y-84587123D01*
X172286257Y-84743610D01*
X172303427Y-84800211D01*
X172337766Y-84913412D01*
X172355158Y-85090000D01*
X172337766Y-85266588D01*
X172308646Y-85362582D01*
X172286257Y-85436390D01*
X172245147Y-85513300D01*
X172202611Y-85592879D01*
X172173288Y-85628609D01*
X172090044Y-85730044D01*
X172017355Y-85789697D01*
X171952879Y-85842611D01*
X171952877Y-85842612D01*
X171796390Y-85926257D01*
X171739789Y-85943427D01*
X171626588Y-85977766D01*
X171538362Y-85986455D01*
X171494250Y-85990800D01*
X171405750Y-85990800D01*
X171361638Y-85986455D01*
X171273412Y-85977766D01*
X171160211Y-85943427D01*
X171103610Y-85926257D01*
X170947123Y-85842612D01*
X170947121Y-85842611D01*
X170882645Y-85789697D01*
X170809956Y-85730044D01*
X170726712Y-85628609D01*
X170697389Y-85592879D01*
X170654853Y-85513300D01*
X170613743Y-85436390D01*
X170591354Y-85362582D01*
X170562234Y-85266588D01*
X170544842Y-85090000D01*
X170562234Y-84913412D01*
X170596573Y-84800211D01*
X170613743Y-84743610D01*
X170697388Y-84587123D01*
X170697389Y-84587121D01*
X170735418Y-84540783D01*
X170809956Y-84449956D01*
X170911391Y-84366712D01*
X170947121Y-84337389D01*
X170965020Y-84327822D01*
X171103610Y-84253743D01*
X171160211Y-84236573D01*
X171273412Y-84202234D01*
X171361638Y-84193545D01*
X171405750Y-84189200D01*
X171494250Y-84189200D01*
X171538362Y-84193545D01*
X171538362Y-84193545D01*
G37*
G36*
X168998362Y-84193545D02*
X169086588Y-84202234D01*
X169199789Y-84236573D01*
X169256390Y-84253743D01*
X169394980Y-84327822D01*
X169412879Y-84337389D01*
X169448609Y-84366712D01*
X169550044Y-84449956D01*
X169624582Y-84540783D01*
X169662611Y-84587121D01*
X169662612Y-84587123D01*
X169746257Y-84743610D01*
X169763427Y-84800211D01*
X169797766Y-84913412D01*
X169815158Y-85090000D01*
X169797766Y-85266588D01*
X169768646Y-85362582D01*
X169746257Y-85436390D01*
X169705147Y-85513300D01*
X169662611Y-85592879D01*
X169633288Y-85628609D01*
X169550044Y-85730044D01*
X169477355Y-85789697D01*
X169412879Y-85842611D01*
X169412877Y-85842612D01*
X169256390Y-85926257D01*
X169199789Y-85943427D01*
X169086588Y-85977766D01*
X168998362Y-85986455D01*
X168954250Y-85990800D01*
X168865750Y-85990800D01*
X168821638Y-85986455D01*
X168733412Y-85977766D01*
X168620211Y-85943427D01*
X168563610Y-85926257D01*
X168407123Y-85842612D01*
X168407121Y-85842611D01*
X168342645Y-85789697D01*
X168269956Y-85730044D01*
X168186712Y-85628609D01*
X168157389Y-85592879D01*
X168114853Y-85513300D01*
X168073743Y-85436390D01*
X168051354Y-85362582D01*
X168022234Y-85266588D01*
X168004842Y-85090000D01*
X168022234Y-84913412D01*
X168056573Y-84800211D01*
X168073743Y-84743610D01*
X168157388Y-84587123D01*
X168157389Y-84587121D01*
X168195418Y-84540783D01*
X168269956Y-84449956D01*
X168371391Y-84366712D01*
X168407121Y-84337389D01*
X168425020Y-84327822D01*
X168563610Y-84253743D01*
X168620211Y-84236573D01*
X168733412Y-84202234D01*
X168821638Y-84193545D01*
X168865750Y-84189200D01*
X168954250Y-84189200D01*
X168998362Y-84193545D01*
X168998362Y-84193545D01*
G37*
G36*
X166458362Y-84193545D02*
X166546588Y-84202234D01*
X166659789Y-84236573D01*
X166716390Y-84253743D01*
X166854980Y-84327822D01*
X166872879Y-84337389D01*
X166908609Y-84366712D01*
X167010044Y-84449956D01*
X167084582Y-84540783D01*
X167122611Y-84587121D01*
X167122612Y-84587123D01*
X167206257Y-84743610D01*
X167223427Y-84800211D01*
X167257766Y-84913412D01*
X167275158Y-85090000D01*
X167257766Y-85266588D01*
X167228646Y-85362582D01*
X167206257Y-85436390D01*
X167165147Y-85513300D01*
X167122611Y-85592879D01*
X167093288Y-85628609D01*
X167010044Y-85730044D01*
X166937355Y-85789697D01*
X166872879Y-85842611D01*
X166872877Y-85842612D01*
X166716390Y-85926257D01*
X166659789Y-85943427D01*
X166546588Y-85977766D01*
X166458362Y-85986455D01*
X166414250Y-85990800D01*
X166325750Y-85990800D01*
X166281638Y-85986455D01*
X166193412Y-85977766D01*
X166080211Y-85943427D01*
X166023610Y-85926257D01*
X165867123Y-85842612D01*
X165867121Y-85842611D01*
X165802645Y-85789697D01*
X165729956Y-85730044D01*
X165646712Y-85628609D01*
X165617389Y-85592879D01*
X165574853Y-85513300D01*
X165533743Y-85436390D01*
X165511354Y-85362582D01*
X165482234Y-85266588D01*
X165464842Y-85090000D01*
X165482234Y-84913412D01*
X165516573Y-84800211D01*
X165533743Y-84743610D01*
X165617388Y-84587123D01*
X165617389Y-84587121D01*
X165655418Y-84540783D01*
X165729956Y-84449956D01*
X165831391Y-84366712D01*
X165867121Y-84337389D01*
X165885020Y-84327822D01*
X166023610Y-84253743D01*
X166080211Y-84236573D01*
X166193412Y-84202234D01*
X166281638Y-84193545D01*
X166325750Y-84189200D01*
X166414250Y-84189200D01*
X166458362Y-84193545D01*
X166458362Y-84193545D01*
G37*
G36*
X163918362Y-84193545D02*
X164006588Y-84202234D01*
X164119789Y-84236573D01*
X164176390Y-84253743D01*
X164314980Y-84327822D01*
X164332879Y-84337389D01*
X164368609Y-84366712D01*
X164470044Y-84449956D01*
X164544582Y-84540783D01*
X164582611Y-84587121D01*
X164582612Y-84587123D01*
X164666257Y-84743610D01*
X164683427Y-84800211D01*
X164717766Y-84913412D01*
X164735158Y-85090000D01*
X164717766Y-85266588D01*
X164688646Y-85362582D01*
X164666257Y-85436390D01*
X164625147Y-85513300D01*
X164582611Y-85592879D01*
X164553288Y-85628609D01*
X164470044Y-85730044D01*
X164397355Y-85789697D01*
X164332879Y-85842611D01*
X164332877Y-85842612D01*
X164176390Y-85926257D01*
X164119789Y-85943427D01*
X164006588Y-85977766D01*
X163918362Y-85986455D01*
X163874250Y-85990800D01*
X163785750Y-85990800D01*
X163741638Y-85986455D01*
X163653412Y-85977766D01*
X163540211Y-85943427D01*
X163483610Y-85926257D01*
X163327123Y-85842612D01*
X163327121Y-85842611D01*
X163262645Y-85789697D01*
X163189956Y-85730044D01*
X163106712Y-85628609D01*
X163077389Y-85592879D01*
X163034853Y-85513300D01*
X162993743Y-85436390D01*
X162971354Y-85362582D01*
X162942234Y-85266588D01*
X162924842Y-85090000D01*
X162942234Y-84913412D01*
X162976573Y-84800211D01*
X162993743Y-84743610D01*
X163077388Y-84587123D01*
X163077389Y-84587121D01*
X163115418Y-84540783D01*
X163189956Y-84449956D01*
X163291391Y-84366712D01*
X163327121Y-84337389D01*
X163345020Y-84327822D01*
X163483610Y-84253743D01*
X163540211Y-84236573D01*
X163653412Y-84202234D01*
X163741638Y-84193545D01*
X163785750Y-84189200D01*
X163874250Y-84189200D01*
X163918362Y-84193545D01*
X163918362Y-84193545D01*
G37*
G36*
X161422229Y-84197854D02*
X161552754Y-84223817D01*
X161716689Y-84291721D01*
X161864227Y-84390303D01*
X161989697Y-84515773D01*
X162088279Y-84663311D01*
X162156183Y-84827246D01*
X162190800Y-85001279D01*
X162190800Y-85178721D01*
X162156183Y-85352754D01*
X162088279Y-85516689D01*
X161989697Y-85664227D01*
X161864227Y-85789697D01*
X161716689Y-85888279D01*
X161552754Y-85956183D01*
X161422229Y-85982146D01*
X161378722Y-85990800D01*
X161201278Y-85990800D01*
X161157771Y-85982146D01*
X161027246Y-85956183D01*
X160863311Y-85888279D01*
X160715773Y-85789697D01*
X160590303Y-85664227D01*
X160491721Y-85516689D01*
X160423817Y-85352754D01*
X160389200Y-85178721D01*
X160389200Y-85001279D01*
X160423817Y-84827246D01*
X160491721Y-84663311D01*
X160590303Y-84515773D01*
X160715773Y-84390303D01*
X160863311Y-84291721D01*
X161027246Y-84223817D01*
X161157771Y-84197854D01*
X161201278Y-84189200D01*
X161378722Y-84189200D01*
X161422229Y-84197854D01*
X161422229Y-84197854D01*
G37*
G36*
X155509027Y-81944168D02*
X155864049Y-82091223D01*
X156183565Y-82304717D01*
X156455283Y-82576435D01*
X156668777Y-82895951D01*
X156815832Y-83250973D01*
X156890800Y-83627862D01*
X156890800Y-84012138D01*
X156815832Y-84389027D01*
X156668777Y-84744049D01*
X156455283Y-85063565D01*
X156183565Y-85335283D01*
X155864049Y-85548777D01*
X155509027Y-85695832D01*
X155132138Y-85770800D01*
X154747862Y-85770800D01*
X154370973Y-85695832D01*
X154015951Y-85548777D01*
X153696435Y-85335283D01*
X153424717Y-85063565D01*
X153211223Y-84744049D01*
X153064168Y-84389027D01*
X152989200Y-84012138D01*
X152989200Y-83627862D01*
X153064168Y-83250973D01*
X153211223Y-82895951D01*
X153424717Y-82576435D01*
X153696435Y-82304717D01*
X154015951Y-82091223D01*
X154370973Y-81944168D01*
X154747862Y-81869200D01*
X155132138Y-81869200D01*
X155509027Y-81944168D01*
X155509027Y-81944168D01*
G37*
G36*
X188529027Y-81944168D02*
X188884049Y-82091223D01*
X189203565Y-82304717D01*
X189475283Y-82576435D01*
X189688777Y-82895951D01*
X189835832Y-83250973D01*
X189910800Y-83627862D01*
X189910800Y-84012138D01*
X189835832Y-84389027D01*
X189688777Y-84744049D01*
X189475283Y-85063565D01*
X189203565Y-85335283D01*
X188884049Y-85548777D01*
X188529027Y-85695832D01*
X188152138Y-85770800D01*
X187767862Y-85770800D01*
X187390973Y-85695832D01*
X187035951Y-85548777D01*
X186716435Y-85335283D01*
X186444717Y-85063565D01*
X186231223Y-84744049D01*
X186084168Y-84389027D01*
X186009200Y-84012138D01*
X186009200Y-83627862D01*
X186084168Y-83250973D01*
X186231223Y-82895951D01*
X186444717Y-82576435D01*
X186716435Y-82304717D01*
X187035951Y-82091223D01*
X187390973Y-81944168D01*
X187767862Y-81869200D01*
X188152138Y-81869200D01*
X188529027Y-81944168D01*
X188529027Y-81944168D01*
G37*
G36*
X158879468Y-84540783D02*
X158913434Y-84551086D01*
X158944732Y-84567816D01*
X158972168Y-84590332D01*
X158994684Y-84617768D01*
X159011414Y-84649066D01*
X159021717Y-84683032D01*
X159025800Y-84724490D01*
X159025800Y-85325510D01*
X159021717Y-85366968D01*
X159011414Y-85400934D01*
X158994684Y-85432232D01*
X158972168Y-85459668D01*
X158944732Y-85482184D01*
X158913434Y-85498914D01*
X158879468Y-85509217D01*
X158838010Y-85513300D01*
X158161990Y-85513300D01*
X158120532Y-85509217D01*
X158086566Y-85498914D01*
X158055268Y-85482184D01*
X158027832Y-85459668D01*
X158005316Y-85432232D01*
X157988586Y-85400934D01*
X157978283Y-85366968D01*
X157974200Y-85325510D01*
X157974200Y-84724490D01*
X157978283Y-84683032D01*
X157988586Y-84649066D01*
X158005316Y-84617768D01*
X158027832Y-84590332D01*
X158055268Y-84567816D01*
X158086566Y-84551086D01*
X158120532Y-84540783D01*
X158161990Y-84536700D01*
X158838010Y-84536700D01*
X158879468Y-84540783D01*
X158879468Y-84540783D01*
G37*
G36*
X158879468Y-82965783D02*
X158913434Y-82976086D01*
X158944732Y-82992816D01*
X158972168Y-83015332D01*
X158994684Y-83042768D01*
X159011414Y-83074066D01*
X159021717Y-83108032D01*
X159025800Y-83149490D01*
X159025800Y-83750510D01*
X159021717Y-83791968D01*
X159011414Y-83825934D01*
X158994684Y-83857232D01*
X158972168Y-83884668D01*
X158944732Y-83907184D01*
X158913434Y-83923914D01*
X158879468Y-83934217D01*
X158838010Y-83938300D01*
X158161990Y-83938300D01*
X158120532Y-83934217D01*
X158086566Y-83923914D01*
X158055268Y-83907184D01*
X158027832Y-83884668D01*
X158005316Y-83857232D01*
X157988586Y-83825934D01*
X157978283Y-83791968D01*
X157974200Y-83750510D01*
X157974200Y-83149490D01*
X157978283Y-83108032D01*
X157988586Y-83074066D01*
X158005316Y-83042768D01*
X158027832Y-83015332D01*
X158055268Y-82992816D01*
X158086566Y-82976086D01*
X158120532Y-82965783D01*
X158161990Y-82961700D01*
X158838010Y-82961700D01*
X158879468Y-82965783D01*
X158879468Y-82965783D01*
G37*
G36*
X163634800Y-82288800D02*
X162333200Y-82288800D01*
X162333200Y-81287200D01*
X163634800Y-81287200D01*
X163634800Y-82288800D01*
X163634800Y-82288800D01*
G37*
G36*
X165834800Y-82288800D02*
X164533200Y-82288800D01*
X164533200Y-81287200D01*
X165834800Y-81287200D01*
X165834800Y-82288800D01*
X165834800Y-82288800D01*
G37*
G36*
X159062800Y-82288800D02*
X157761200Y-82288800D01*
X157761200Y-81287200D01*
X159062800Y-81287200D01*
X159062800Y-82288800D01*
X159062800Y-82288800D01*
G37*
G36*
X161262800Y-82288800D02*
X159961200Y-82288800D01*
X159961200Y-81287200D01*
X161262800Y-81287200D01*
X161262800Y-82288800D01*
X161262800Y-82288800D01*
G37*
G36*
X175425800Y-82050800D02*
X169574200Y-82050800D01*
X169574200Y-80649200D01*
X175425800Y-80649200D01*
X175425800Y-82050800D01*
X175425800Y-82050800D01*
G37*
G36*
X181825800Y-81775800D02*
X180524200Y-81775800D01*
X180524200Y-80924200D01*
X181825800Y-80924200D01*
X181825800Y-81775800D01*
X181825800Y-81775800D01*
G37*
G36*
X179925800Y-81775800D02*
X178624200Y-81775800D01*
X178624200Y-80924200D01*
X179925800Y-80924200D01*
X179925800Y-81775800D01*
X179925800Y-81775800D01*
G37*
G36*
X177550800Y-79925800D02*
X176149200Y-79925800D01*
X176149200Y-74074200D01*
X177550800Y-74074200D01*
X177550800Y-79925800D01*
X177550800Y-79925800D01*
G37*
G36*
X168850800Y-79925800D02*
X167449200Y-79925800D01*
X167449200Y-74074200D01*
X168850800Y-74074200D01*
X168850800Y-79925800D01*
X168850800Y-79925800D01*
G37*
G36*
X165684800Y-79673800D02*
X164383200Y-79673800D01*
X164383200Y-78822200D01*
X165684800Y-78822200D01*
X165684800Y-79673800D01*
X165684800Y-79673800D01*
G37*
G36*
X163784800Y-79673800D02*
X162483200Y-79673800D01*
X162483200Y-78822200D01*
X163784800Y-78822200D01*
X163784800Y-79673800D01*
X163784800Y-79673800D01*
G37*
G36*
X161112800Y-79673800D02*
X159811200Y-79673800D01*
X159811200Y-78822200D01*
X161112800Y-78822200D01*
X161112800Y-79673800D01*
X161112800Y-79673800D01*
G37*
G36*
X159212800Y-79673800D02*
X157911200Y-79673800D01*
X157911200Y-78822200D01*
X159212800Y-78822200D01*
X159212800Y-79673800D01*
X159212800Y-79673800D01*
G37*
G36*
X154842400Y-71554200D02*
X154844802Y-71578586D01*
X154851915Y-71602035D01*
X154863466Y-71623646D01*
X154879012Y-71642588D01*
X154897954Y-71658134D01*
X154919565Y-71669685D01*
X154943014Y-71676798D01*
X154967400Y-71679200D01*
X157242400Y-71679200D01*
X157242400Y-78180800D01*
X154967400Y-78180800D01*
X154943014Y-78183202D01*
X154919565Y-78190315D01*
X154897954Y-78201866D01*
X154879012Y-78217412D01*
X154863466Y-78236354D01*
X154851915Y-78257965D01*
X154844802Y-78281414D01*
X154842400Y-78305800D01*
X154842400Y-79078300D01*
X152840800Y-79078300D01*
X152840800Y-75131700D01*
X154842400Y-75131700D01*
X154842400Y-76479200D01*
X154844802Y-76503586D01*
X154851915Y-76527035D01*
X154863466Y-76548646D01*
X154879012Y-76567588D01*
X154897954Y-76583134D01*
X154919565Y-76594685D01*
X154943014Y-76601798D01*
X154967400Y-76604200D01*
X155635800Y-76604200D01*
X155660186Y-76601798D01*
X155683635Y-76594685D01*
X155705246Y-76583134D01*
X155724188Y-76567588D01*
X155739734Y-76548646D01*
X155751285Y-76527035D01*
X155758398Y-76503586D01*
X155760800Y-76479200D01*
X155760800Y-73380800D01*
X155758398Y-73356414D01*
X155751285Y-73332965D01*
X155739734Y-73311354D01*
X155724188Y-73292412D01*
X155705246Y-73276866D01*
X155683635Y-73265315D01*
X155660186Y-73258202D01*
X155635800Y-73255800D01*
X154967400Y-73255800D01*
X154943014Y-73258202D01*
X154919565Y-73265315D01*
X154897954Y-73276866D01*
X154879012Y-73292412D01*
X154863466Y-73311354D01*
X154851915Y-73332965D01*
X154844802Y-73356414D01*
X154842400Y-73380800D01*
X154842400Y-74728300D01*
X152840800Y-74728300D01*
X152840800Y-70781700D01*
X154842400Y-70781700D01*
X154842400Y-71554200D01*
X154842400Y-71554200D01*
G37*
G36*
X163050800Y-76800800D02*
X161749200Y-76800800D01*
X161749200Y-75799200D01*
X163050800Y-75799200D01*
X163050800Y-76800800D01*
X163050800Y-76800800D01*
G37*
G36*
X165250800Y-76800800D02*
X163949200Y-76800800D01*
X163949200Y-75799200D01*
X165250800Y-75799200D01*
X165250800Y-76800800D01*
X165250800Y-76800800D01*
G37*
G36*
X186000800Y-76750800D02*
X184999200Y-76750800D01*
X184999200Y-75449200D01*
X186000800Y-75449200D01*
X186000800Y-76750800D01*
X186000800Y-76750800D01*
G37*
G36*
X164850800Y-75100800D02*
X163549200Y-75100800D01*
X163549200Y-74099200D01*
X164850800Y-74099200D01*
X164850800Y-75100800D01*
X164850800Y-75100800D01*
G37*
G36*
X162650800Y-75100800D02*
X161349200Y-75100800D01*
X161349200Y-74099200D01*
X162650800Y-74099200D01*
X162650800Y-75100800D01*
X162650800Y-75100800D01*
G37*
G36*
X186000800Y-74550800D02*
X184999200Y-74550800D01*
X184999200Y-73249200D01*
X186000800Y-73249200D01*
X186000800Y-74550800D01*
X186000800Y-74550800D01*
G37*
G36*
X180550800Y-74500800D02*
X179249200Y-74500800D01*
X179249200Y-73499200D01*
X180550800Y-73499200D01*
X180550800Y-74500800D01*
X180550800Y-74500800D01*
G37*
G36*
X182750800Y-74500800D02*
X181449200Y-74500800D01*
X181449200Y-73499200D01*
X182750800Y-73499200D01*
X182750800Y-74500800D01*
X182750800Y-74500800D01*
G37*
G36*
X165100800Y-73425800D02*
X163799200Y-73425800D01*
X163799200Y-72574200D01*
X165100800Y-72574200D01*
X165100800Y-73425800D01*
X165100800Y-73425800D01*
G37*
G36*
X163200800Y-73425800D02*
X161899200Y-73425800D01*
X161899200Y-72574200D01*
X163200800Y-72574200D01*
X163200800Y-73425800D01*
X163200800Y-73425800D01*
G37*
G36*
X175425800Y-73350800D02*
X169574200Y-73350800D01*
X169574200Y-71949200D01*
X175425800Y-71949200D01*
X175425800Y-73350800D01*
X175425800Y-73350800D01*
G37*
G36*
X160475800Y-73000800D02*
X159624200Y-73000800D01*
X159624200Y-71699200D01*
X160475800Y-71699200D01*
X160475800Y-73000800D01*
X160475800Y-73000800D01*
G37*
G36*
X180700800Y-72825800D02*
X179399200Y-72825800D01*
X179399200Y-71974200D01*
X180700800Y-71974200D01*
X180700800Y-72825800D01*
X180700800Y-72825800D01*
G37*
G36*
X182600800Y-72825800D02*
X181299200Y-72825800D01*
X181299200Y-71974200D01*
X182600800Y-71974200D01*
X182600800Y-72825800D01*
X182600800Y-72825800D01*
G37*
G36*
X164000800Y-71450800D02*
X161999200Y-71450800D01*
X161999200Y-70949200D01*
X164000800Y-70949200D01*
X164000800Y-71450800D01*
X164000800Y-71450800D01*
G37*
G36*
X182600800Y-71425800D02*
X181299200Y-71425800D01*
X181299200Y-70574200D01*
X182600800Y-70574200D01*
X182600800Y-71425800D01*
X182600800Y-71425800D01*
G37*
G36*
X180700800Y-71425800D02*
X179399200Y-71425800D01*
X179399200Y-70574200D01*
X180700800Y-70574200D01*
X180700800Y-71425800D01*
X180700800Y-71425800D01*
G37*
G36*
X175000800Y-71150800D02*
X173999200Y-71150800D01*
X173999200Y-69849200D01*
X175000800Y-69849200D01*
X175000800Y-71150800D01*
X175000800Y-71150800D01*
G37*
G36*
X172585800Y-71150800D02*
X171584200Y-71150800D01*
X171584200Y-69849200D01*
X172585800Y-69849200D01*
X172585800Y-71150800D01*
X172585800Y-71150800D01*
G37*
G36*
X160475800Y-71100800D02*
X159624200Y-71100800D01*
X159624200Y-69799200D01*
X160475800Y-69799200D01*
X160475800Y-71100800D01*
X160475800Y-71100800D01*
G37*
G36*
X176450800Y-70850800D02*
X175599200Y-70850800D01*
X175599200Y-69549200D01*
X176450800Y-69549200D01*
X176450800Y-70850800D01*
X176450800Y-70850800D01*
G37*
G36*
X164000800Y-70250800D02*
X161999200Y-70250800D01*
X161999200Y-69749200D01*
X164000800Y-69749200D01*
X164000800Y-70250800D01*
X164000800Y-70250800D01*
G37*
G36*
X166980800Y-70225800D02*
X165319200Y-70225800D01*
X165319200Y-67574200D01*
X166980800Y-67574200D01*
X166980800Y-70225800D01*
X166980800Y-70225800D01*
G37*
G36*
X169680800Y-70225800D02*
X168019200Y-70225800D01*
X168019200Y-67574200D01*
X169680800Y-67574200D01*
X169680800Y-70225800D01*
X169680800Y-70225800D01*
G37*
G36*
X164000800Y-69050800D02*
X161999200Y-69050800D01*
X161999200Y-68549200D01*
X164000800Y-68549200D01*
X164000800Y-69050800D01*
X164000800Y-69050800D01*
G37*
G36*
X158950800Y-69000800D02*
X157649200Y-69000800D01*
X157649200Y-67999200D01*
X158950800Y-67999200D01*
X158950800Y-69000800D01*
X158950800Y-69000800D01*
G37*
G36*
X161150800Y-69000800D02*
X159849200Y-69000800D01*
X159849200Y-67999200D01*
X161150800Y-67999200D01*
X161150800Y-69000800D01*
X161150800Y-69000800D01*
G37*
G36*
X176450800Y-68950800D02*
X175599200Y-68950800D01*
X175599200Y-67649200D01*
X176450800Y-67649200D01*
X176450800Y-68950800D01*
X176450800Y-68950800D01*
G37*
G36*
X175000800Y-68950800D02*
X173999200Y-68950800D01*
X173999200Y-67649200D01*
X175000800Y-67649200D01*
X175000800Y-68950800D01*
X175000800Y-68950800D01*
G37*
G36*
X172585800Y-68950800D02*
X171584200Y-68950800D01*
X171584200Y-67649200D01*
X172585800Y-67649200D01*
X172585800Y-68950800D01*
X172585800Y-68950800D01*
G37*
G36*
X188529027Y-64164168D02*
X188884049Y-64311223D01*
X189203565Y-64524717D01*
X189475283Y-64796435D01*
X189688777Y-65115951D01*
X189835832Y-65470973D01*
X189910800Y-65847862D01*
X189910800Y-66232138D01*
X189835832Y-66609027D01*
X189688777Y-66964049D01*
X189475283Y-67283565D01*
X189203565Y-67555283D01*
X188884049Y-67768777D01*
X188529027Y-67915832D01*
X188152138Y-67990800D01*
X187767862Y-67990800D01*
X187390973Y-67915832D01*
X187035951Y-67768777D01*
X186716435Y-67555283D01*
X186444717Y-67283565D01*
X186231223Y-66964049D01*
X186084168Y-66609027D01*
X186009200Y-66232138D01*
X186009200Y-65847862D01*
X186084168Y-65470973D01*
X186231223Y-65115951D01*
X186444717Y-64796435D01*
X186716435Y-64524717D01*
X187035951Y-64311223D01*
X187390973Y-64164168D01*
X187767862Y-64089200D01*
X188152138Y-64089200D01*
X188529027Y-64164168D01*
X188529027Y-64164168D01*
G37*
G36*
X155509027Y-64164168D02*
X155864049Y-64311223D01*
X156183565Y-64524717D01*
X156455283Y-64796435D01*
X156668777Y-65115951D01*
X156815832Y-65470973D01*
X156890800Y-65847862D01*
X156890800Y-66232138D01*
X156815832Y-66609027D01*
X156668777Y-66964049D01*
X156455283Y-67283565D01*
X156183565Y-67555283D01*
X155864049Y-67768777D01*
X155509027Y-67915832D01*
X155132138Y-67990800D01*
X154747862Y-67990800D01*
X154370973Y-67915832D01*
X154015951Y-67768777D01*
X153696435Y-67555283D01*
X153424717Y-67283565D01*
X153211223Y-66964049D01*
X153064168Y-66609027D01*
X152989200Y-66232138D01*
X152989200Y-65847862D01*
X153064168Y-65470973D01*
X153211223Y-65115951D01*
X153424717Y-64796435D01*
X153696435Y-64524717D01*
X154015951Y-64311223D01*
X154370973Y-64164168D01*
X154747862Y-64089200D01*
X155132138Y-64089200D01*
X155509027Y-64164168D01*
X155509027Y-64164168D01*
G37*
G36*
X158879468Y-66303283D02*
X158913434Y-66313586D01*
X158944732Y-66330316D01*
X158972168Y-66352832D01*
X158994684Y-66380268D01*
X159011414Y-66411566D01*
X159021717Y-66445532D01*
X159025800Y-66486990D01*
X159025800Y-67088010D01*
X159021717Y-67129468D01*
X159011414Y-67163434D01*
X158994684Y-67194732D01*
X158972168Y-67222168D01*
X158944732Y-67244684D01*
X158913434Y-67261414D01*
X158879468Y-67271717D01*
X158838010Y-67275800D01*
X158161990Y-67275800D01*
X158120532Y-67271717D01*
X158086566Y-67261414D01*
X158055268Y-67244684D01*
X158027832Y-67222168D01*
X158005316Y-67194732D01*
X157988586Y-67163434D01*
X157978283Y-67129468D01*
X157974200Y-67088010D01*
X157974200Y-66486990D01*
X157978283Y-66445532D01*
X157988586Y-66411566D01*
X158005316Y-66380268D01*
X158027832Y-66352832D01*
X158055268Y-66330316D01*
X158086566Y-66313586D01*
X158120532Y-66303283D01*
X158161990Y-66299200D01*
X158838010Y-66299200D01*
X158879468Y-66303283D01*
X158879468Y-66303283D01*
G37*
G36*
X158879468Y-64728283D02*
X158913434Y-64738586D01*
X158944732Y-64755316D01*
X158972168Y-64777832D01*
X158994684Y-64805268D01*
X159011414Y-64836566D01*
X159021717Y-64870532D01*
X159025800Y-64911990D01*
X159025800Y-65513010D01*
X159021717Y-65554468D01*
X159011414Y-65588434D01*
X158994684Y-65619732D01*
X158972168Y-65647168D01*
X158944732Y-65669684D01*
X158913434Y-65686414D01*
X158879468Y-65696717D01*
X158838010Y-65700800D01*
X158161990Y-65700800D01*
X158120532Y-65696717D01*
X158086566Y-65686414D01*
X158055268Y-65669684D01*
X158027832Y-65647168D01*
X158005316Y-65619732D01*
X157988586Y-65588434D01*
X157978283Y-65554468D01*
X157974200Y-65513010D01*
X157974200Y-64911990D01*
X157978283Y-64870532D01*
X157988586Y-64836566D01*
X158005316Y-64805268D01*
X158027832Y-64777832D01*
X158055268Y-64755316D01*
X158086566Y-64738586D01*
X158120532Y-64728283D01*
X158161990Y-64724200D01*
X158838010Y-64724200D01*
X158879468Y-64728283D01*
X158879468Y-64728283D01*
G37*
G36*
X184282229Y-63877854D02*
X184412754Y-63903817D01*
X184576689Y-63971721D01*
X184724227Y-64070303D01*
X184849697Y-64195773D01*
X184948279Y-64343311D01*
X185016183Y-64507246D01*
X185050800Y-64681279D01*
X185050800Y-64858721D01*
X185016183Y-65032754D01*
X184948279Y-65196689D01*
X184849697Y-65344227D01*
X184724227Y-65469697D01*
X184576689Y-65568279D01*
X184412754Y-65636183D01*
X184294761Y-65659653D01*
X184238722Y-65670800D01*
X184061278Y-65670800D01*
X184005239Y-65659653D01*
X183887246Y-65636183D01*
X183723311Y-65568279D01*
X183575773Y-65469697D01*
X183450303Y-65344227D01*
X183351721Y-65196689D01*
X183283817Y-65032754D01*
X183249200Y-64858721D01*
X183249200Y-64681279D01*
X183283817Y-64507246D01*
X183351721Y-64343311D01*
X183450303Y-64195773D01*
X183575773Y-64070303D01*
X183723311Y-63971721D01*
X183887246Y-63903817D01*
X184017771Y-63877854D01*
X184061278Y-63869200D01*
X184238722Y-63869200D01*
X184282229Y-63877854D01*
X184282229Y-63877854D01*
G37*
G36*
X181698362Y-63873545D02*
X181786588Y-63882234D01*
X181899789Y-63916573D01*
X181956390Y-63933743D01*
X182094980Y-64007822D01*
X182112879Y-64017389D01*
X182148609Y-64046712D01*
X182250044Y-64129956D01*
X182333288Y-64231391D01*
X182362611Y-64267121D01*
X182362612Y-64267123D01*
X182446257Y-64423610D01*
X182446257Y-64423611D01*
X182497766Y-64593412D01*
X182515158Y-64770000D01*
X182497766Y-64946588D01*
X182463427Y-65059789D01*
X182446257Y-65116390D01*
X182403336Y-65196689D01*
X182362611Y-65272879D01*
X182333288Y-65308609D01*
X182250044Y-65410044D01*
X182177355Y-65469697D01*
X182112879Y-65522611D01*
X182112877Y-65522612D01*
X181956390Y-65606257D01*
X181911968Y-65619732D01*
X181786588Y-65657766D01*
X181698362Y-65666455D01*
X181654250Y-65670800D01*
X181565750Y-65670800D01*
X181521638Y-65666455D01*
X181433412Y-65657766D01*
X181308032Y-65619732D01*
X181263610Y-65606257D01*
X181107123Y-65522612D01*
X181107121Y-65522611D01*
X181042645Y-65469697D01*
X180969956Y-65410044D01*
X180886712Y-65308609D01*
X180857389Y-65272879D01*
X180816664Y-65196689D01*
X180773743Y-65116390D01*
X180756573Y-65059789D01*
X180722234Y-64946588D01*
X180704842Y-64770000D01*
X180722234Y-64593412D01*
X180773743Y-64423611D01*
X180773743Y-64423610D01*
X180857388Y-64267123D01*
X180857389Y-64267121D01*
X180886712Y-64231391D01*
X180969956Y-64129956D01*
X181071391Y-64046712D01*
X181107121Y-64017389D01*
X181125020Y-64007822D01*
X181263610Y-63933743D01*
X181320211Y-63916573D01*
X181433412Y-63882234D01*
X181521638Y-63873545D01*
X181565750Y-63869200D01*
X181654250Y-63869200D01*
X181698362Y-63873545D01*
X181698362Y-63873545D01*
G37*
G36*
X179158362Y-63873545D02*
X179246588Y-63882234D01*
X179359789Y-63916573D01*
X179416390Y-63933743D01*
X179554980Y-64007822D01*
X179572879Y-64017389D01*
X179608609Y-64046712D01*
X179710044Y-64129956D01*
X179793288Y-64231391D01*
X179822611Y-64267121D01*
X179822612Y-64267123D01*
X179906257Y-64423610D01*
X179906257Y-64423611D01*
X179957766Y-64593412D01*
X179975158Y-64770000D01*
X179957766Y-64946588D01*
X179923427Y-65059789D01*
X179906257Y-65116390D01*
X179863336Y-65196689D01*
X179822611Y-65272879D01*
X179793288Y-65308609D01*
X179710044Y-65410044D01*
X179637355Y-65469697D01*
X179572879Y-65522611D01*
X179572877Y-65522612D01*
X179416390Y-65606257D01*
X179371968Y-65619732D01*
X179246588Y-65657766D01*
X179158362Y-65666455D01*
X179114250Y-65670800D01*
X179025750Y-65670800D01*
X178981638Y-65666455D01*
X178893412Y-65657766D01*
X178768032Y-65619732D01*
X178723610Y-65606257D01*
X178567123Y-65522612D01*
X178567121Y-65522611D01*
X178502645Y-65469697D01*
X178429956Y-65410044D01*
X178346712Y-65308609D01*
X178317389Y-65272879D01*
X178276664Y-65196689D01*
X178233743Y-65116390D01*
X178216573Y-65059789D01*
X178182234Y-64946588D01*
X178164842Y-64770000D01*
X178182234Y-64593412D01*
X178233743Y-64423611D01*
X178233743Y-64423610D01*
X178317388Y-64267123D01*
X178317389Y-64267121D01*
X178346712Y-64231391D01*
X178429956Y-64129956D01*
X178531391Y-64046712D01*
X178567121Y-64017389D01*
X178585020Y-64007822D01*
X178723610Y-63933743D01*
X178780211Y-63916573D01*
X178893412Y-63882234D01*
X178981638Y-63873545D01*
X179025750Y-63869200D01*
X179114250Y-63869200D01*
X179158362Y-63873545D01*
X179158362Y-63873545D01*
G37*
G36*
X176618362Y-63873545D02*
X176706588Y-63882234D01*
X176819789Y-63916573D01*
X176876390Y-63933743D01*
X177014980Y-64007822D01*
X177032879Y-64017389D01*
X177068609Y-64046712D01*
X177170044Y-64129956D01*
X177253288Y-64231391D01*
X177282611Y-64267121D01*
X177282612Y-64267123D01*
X177366257Y-64423610D01*
X177366257Y-64423611D01*
X177417766Y-64593412D01*
X177435158Y-64770000D01*
X177417766Y-64946588D01*
X177383427Y-65059789D01*
X177366257Y-65116390D01*
X177323336Y-65196689D01*
X177282611Y-65272879D01*
X177253288Y-65308609D01*
X177170044Y-65410044D01*
X177097355Y-65469697D01*
X177032879Y-65522611D01*
X177032877Y-65522612D01*
X176876390Y-65606257D01*
X176831968Y-65619732D01*
X176706588Y-65657766D01*
X176618362Y-65666455D01*
X176574250Y-65670800D01*
X176485750Y-65670800D01*
X176441638Y-65666455D01*
X176353412Y-65657766D01*
X176228032Y-65619732D01*
X176183610Y-65606257D01*
X176027123Y-65522612D01*
X176027121Y-65522611D01*
X175962645Y-65469697D01*
X175889956Y-65410044D01*
X175806712Y-65308609D01*
X175777389Y-65272879D01*
X175736664Y-65196689D01*
X175693743Y-65116390D01*
X175676573Y-65059789D01*
X175642234Y-64946588D01*
X175624842Y-64770000D01*
X175642234Y-64593412D01*
X175693743Y-64423611D01*
X175693743Y-64423610D01*
X175777388Y-64267123D01*
X175777389Y-64267121D01*
X175806712Y-64231391D01*
X175889956Y-64129956D01*
X175991391Y-64046712D01*
X176027121Y-64017389D01*
X176045020Y-64007822D01*
X176183610Y-63933743D01*
X176240211Y-63916573D01*
X176353412Y-63882234D01*
X176441638Y-63873545D01*
X176485750Y-63869200D01*
X176574250Y-63869200D01*
X176618362Y-63873545D01*
X176618362Y-63873545D01*
G37*
G36*
X174078362Y-63873545D02*
X174166588Y-63882234D01*
X174279789Y-63916573D01*
X174336390Y-63933743D01*
X174474980Y-64007822D01*
X174492879Y-64017389D01*
X174528609Y-64046712D01*
X174630044Y-64129956D01*
X174713288Y-64231391D01*
X174742611Y-64267121D01*
X174742612Y-64267123D01*
X174826257Y-64423610D01*
X174826257Y-64423611D01*
X174877766Y-64593412D01*
X174895158Y-64770000D01*
X174877766Y-64946588D01*
X174843427Y-65059789D01*
X174826257Y-65116390D01*
X174783336Y-65196689D01*
X174742611Y-65272879D01*
X174713288Y-65308609D01*
X174630044Y-65410044D01*
X174557355Y-65469697D01*
X174492879Y-65522611D01*
X174492877Y-65522612D01*
X174336390Y-65606257D01*
X174291968Y-65619732D01*
X174166588Y-65657766D01*
X174078362Y-65666455D01*
X174034250Y-65670800D01*
X173945750Y-65670800D01*
X173901638Y-65666455D01*
X173813412Y-65657766D01*
X173688032Y-65619732D01*
X173643610Y-65606257D01*
X173487123Y-65522612D01*
X173487121Y-65522611D01*
X173422645Y-65469697D01*
X173349956Y-65410044D01*
X173266712Y-65308609D01*
X173237389Y-65272879D01*
X173196664Y-65196689D01*
X173153743Y-65116390D01*
X173136573Y-65059789D01*
X173102234Y-64946588D01*
X173084842Y-64770000D01*
X173102234Y-64593412D01*
X173153743Y-64423611D01*
X173153743Y-64423610D01*
X173237388Y-64267123D01*
X173237389Y-64267121D01*
X173266712Y-64231391D01*
X173349956Y-64129956D01*
X173451391Y-64046712D01*
X173487121Y-64017389D01*
X173505020Y-64007822D01*
X173643610Y-63933743D01*
X173700211Y-63916573D01*
X173813412Y-63882234D01*
X173901638Y-63873545D01*
X173945750Y-63869200D01*
X174034250Y-63869200D01*
X174078362Y-63873545D01*
X174078362Y-63873545D01*
G37*
G36*
X171538362Y-63873545D02*
X171626588Y-63882234D01*
X171739789Y-63916573D01*
X171796390Y-63933743D01*
X171934980Y-64007822D01*
X171952879Y-64017389D01*
X171988609Y-64046712D01*
X172090044Y-64129956D01*
X172173288Y-64231391D01*
X172202611Y-64267121D01*
X172202612Y-64267123D01*
X172286257Y-64423610D01*
X172286257Y-64423611D01*
X172337766Y-64593412D01*
X172355158Y-64770000D01*
X172337766Y-64946588D01*
X172303427Y-65059789D01*
X172286257Y-65116390D01*
X172243336Y-65196689D01*
X172202611Y-65272879D01*
X172173288Y-65308609D01*
X172090044Y-65410044D01*
X172017355Y-65469697D01*
X171952879Y-65522611D01*
X171952877Y-65522612D01*
X171796390Y-65606257D01*
X171751968Y-65619732D01*
X171626588Y-65657766D01*
X171538362Y-65666455D01*
X171494250Y-65670800D01*
X171405750Y-65670800D01*
X171361638Y-65666455D01*
X171273412Y-65657766D01*
X171148032Y-65619732D01*
X171103610Y-65606257D01*
X170947123Y-65522612D01*
X170947121Y-65522611D01*
X170882645Y-65469697D01*
X170809956Y-65410044D01*
X170726712Y-65308609D01*
X170697389Y-65272879D01*
X170656664Y-65196689D01*
X170613743Y-65116390D01*
X170596573Y-65059789D01*
X170562234Y-64946588D01*
X170544842Y-64770000D01*
X170562234Y-64593412D01*
X170613743Y-64423611D01*
X170613743Y-64423610D01*
X170697388Y-64267123D01*
X170697389Y-64267121D01*
X170726712Y-64231391D01*
X170809956Y-64129956D01*
X170911391Y-64046712D01*
X170947121Y-64017389D01*
X170965020Y-64007822D01*
X171103610Y-63933743D01*
X171160211Y-63916573D01*
X171273412Y-63882234D01*
X171361638Y-63873545D01*
X171405750Y-63869200D01*
X171494250Y-63869200D01*
X171538362Y-63873545D01*
X171538362Y-63873545D01*
G37*
G36*
X168998362Y-63873545D02*
X169086588Y-63882234D01*
X169199789Y-63916573D01*
X169256390Y-63933743D01*
X169394980Y-64007822D01*
X169412879Y-64017389D01*
X169448609Y-64046712D01*
X169550044Y-64129956D01*
X169633288Y-64231391D01*
X169662611Y-64267121D01*
X169662612Y-64267123D01*
X169746257Y-64423610D01*
X169746257Y-64423611D01*
X169797766Y-64593412D01*
X169815158Y-64770000D01*
X169797766Y-64946588D01*
X169763427Y-65059789D01*
X169746257Y-65116390D01*
X169703336Y-65196689D01*
X169662611Y-65272879D01*
X169633288Y-65308609D01*
X169550044Y-65410044D01*
X169477355Y-65469697D01*
X169412879Y-65522611D01*
X169412877Y-65522612D01*
X169256390Y-65606257D01*
X169211968Y-65619732D01*
X169086588Y-65657766D01*
X168998362Y-65666455D01*
X168954250Y-65670800D01*
X168865750Y-65670800D01*
X168821638Y-65666455D01*
X168733412Y-65657766D01*
X168608032Y-65619732D01*
X168563610Y-65606257D01*
X168407123Y-65522612D01*
X168407121Y-65522611D01*
X168342645Y-65469697D01*
X168269956Y-65410044D01*
X168186712Y-65308609D01*
X168157389Y-65272879D01*
X168116664Y-65196689D01*
X168073743Y-65116390D01*
X168056573Y-65059789D01*
X168022234Y-64946588D01*
X168004842Y-64770000D01*
X168022234Y-64593412D01*
X168073743Y-64423611D01*
X168073743Y-64423610D01*
X168157388Y-64267123D01*
X168157389Y-64267121D01*
X168186712Y-64231391D01*
X168269956Y-64129956D01*
X168371391Y-64046712D01*
X168407121Y-64017389D01*
X168425020Y-64007822D01*
X168563610Y-63933743D01*
X168620211Y-63916573D01*
X168733412Y-63882234D01*
X168821638Y-63873545D01*
X168865750Y-63869200D01*
X168954250Y-63869200D01*
X168998362Y-63873545D01*
X168998362Y-63873545D01*
G37*
G36*
X166458362Y-63873545D02*
X166546588Y-63882234D01*
X166659789Y-63916573D01*
X166716390Y-63933743D01*
X166854980Y-64007822D01*
X166872879Y-64017389D01*
X166908609Y-64046712D01*
X167010044Y-64129956D01*
X167093288Y-64231391D01*
X167122611Y-64267121D01*
X167122612Y-64267123D01*
X167206257Y-64423610D01*
X167206257Y-64423611D01*
X167257766Y-64593412D01*
X167275158Y-64770000D01*
X167257766Y-64946588D01*
X167223427Y-65059789D01*
X167206257Y-65116390D01*
X167163336Y-65196689D01*
X167122611Y-65272879D01*
X167093288Y-65308609D01*
X167010044Y-65410044D01*
X166937355Y-65469697D01*
X166872879Y-65522611D01*
X166872877Y-65522612D01*
X166716390Y-65606257D01*
X166671968Y-65619732D01*
X166546588Y-65657766D01*
X166458362Y-65666455D01*
X166414250Y-65670800D01*
X166325750Y-65670800D01*
X166281638Y-65666455D01*
X166193412Y-65657766D01*
X166068032Y-65619732D01*
X166023610Y-65606257D01*
X165867123Y-65522612D01*
X165867121Y-65522611D01*
X165802645Y-65469697D01*
X165729956Y-65410044D01*
X165646712Y-65308609D01*
X165617389Y-65272879D01*
X165576664Y-65196689D01*
X165533743Y-65116390D01*
X165516573Y-65059789D01*
X165482234Y-64946588D01*
X165464842Y-64770000D01*
X165482234Y-64593412D01*
X165533743Y-64423611D01*
X165533743Y-64423610D01*
X165617388Y-64267123D01*
X165617389Y-64267121D01*
X165646712Y-64231391D01*
X165729956Y-64129956D01*
X165831391Y-64046712D01*
X165867121Y-64017389D01*
X165885020Y-64007822D01*
X166023610Y-63933743D01*
X166080211Y-63916573D01*
X166193412Y-63882234D01*
X166281638Y-63873545D01*
X166325750Y-63869200D01*
X166414250Y-63869200D01*
X166458362Y-63873545D01*
X166458362Y-63873545D01*
G37*
G36*
X163918362Y-63873545D02*
X164006588Y-63882234D01*
X164119789Y-63916573D01*
X164176390Y-63933743D01*
X164314980Y-64007822D01*
X164332879Y-64017389D01*
X164368609Y-64046712D01*
X164470044Y-64129956D01*
X164553288Y-64231391D01*
X164582611Y-64267121D01*
X164582612Y-64267123D01*
X164666257Y-64423610D01*
X164666257Y-64423611D01*
X164717766Y-64593412D01*
X164735158Y-64770000D01*
X164717766Y-64946588D01*
X164683427Y-65059789D01*
X164666257Y-65116390D01*
X164623336Y-65196689D01*
X164582611Y-65272879D01*
X164553288Y-65308609D01*
X164470044Y-65410044D01*
X164397355Y-65469697D01*
X164332879Y-65522611D01*
X164332877Y-65522612D01*
X164176390Y-65606257D01*
X164131968Y-65619732D01*
X164006588Y-65657766D01*
X163918362Y-65666455D01*
X163874250Y-65670800D01*
X163785750Y-65670800D01*
X163741638Y-65666455D01*
X163653412Y-65657766D01*
X163528032Y-65619732D01*
X163483610Y-65606257D01*
X163327123Y-65522612D01*
X163327121Y-65522611D01*
X163262645Y-65469697D01*
X163189956Y-65410044D01*
X163106712Y-65308609D01*
X163077389Y-65272879D01*
X163036664Y-65196689D01*
X162993743Y-65116390D01*
X162976573Y-65059789D01*
X162942234Y-64946588D01*
X162924842Y-64770000D01*
X162942234Y-64593412D01*
X162993743Y-64423611D01*
X162993743Y-64423610D01*
X163077388Y-64267123D01*
X163077389Y-64267121D01*
X163106712Y-64231391D01*
X163189956Y-64129956D01*
X163291391Y-64046712D01*
X163327121Y-64017389D01*
X163345020Y-64007822D01*
X163483610Y-63933743D01*
X163540211Y-63916573D01*
X163653412Y-63882234D01*
X163741638Y-63873545D01*
X163785750Y-63869200D01*
X163874250Y-63869200D01*
X163918362Y-63873545D01*
X163918362Y-63873545D01*
G37*
G36*
X161378362Y-63873545D02*
X161466588Y-63882234D01*
X161579789Y-63916573D01*
X161636390Y-63933743D01*
X161774980Y-64007822D01*
X161792879Y-64017389D01*
X161828609Y-64046712D01*
X161930044Y-64129956D01*
X162013288Y-64231391D01*
X162042611Y-64267121D01*
X162042612Y-64267123D01*
X162126257Y-64423610D01*
X162126257Y-64423611D01*
X162177766Y-64593412D01*
X162195158Y-64770000D01*
X162177766Y-64946588D01*
X162143427Y-65059789D01*
X162126257Y-65116390D01*
X162083336Y-65196689D01*
X162042611Y-65272879D01*
X162013288Y-65308609D01*
X161930044Y-65410044D01*
X161857355Y-65469697D01*
X161792879Y-65522611D01*
X161792877Y-65522612D01*
X161636390Y-65606257D01*
X161591968Y-65619732D01*
X161466588Y-65657766D01*
X161378362Y-65666455D01*
X161334250Y-65670800D01*
X161245750Y-65670800D01*
X161201638Y-65666455D01*
X161113412Y-65657766D01*
X160988032Y-65619732D01*
X160943610Y-65606257D01*
X160787123Y-65522612D01*
X160787121Y-65522611D01*
X160722645Y-65469697D01*
X160649956Y-65410044D01*
X160566712Y-65308609D01*
X160537389Y-65272879D01*
X160496664Y-65196689D01*
X160453743Y-65116390D01*
X160436573Y-65059789D01*
X160402234Y-64946588D01*
X160384842Y-64770000D01*
X160402234Y-64593412D01*
X160453743Y-64423611D01*
X160453743Y-64423610D01*
X160537388Y-64267123D01*
X160537389Y-64267121D01*
X160566712Y-64231391D01*
X160649956Y-64129956D01*
X160751391Y-64046712D01*
X160787121Y-64017389D01*
X160805020Y-64007822D01*
X160943610Y-63933743D01*
X161000211Y-63916573D01*
X161113412Y-63882234D01*
X161201638Y-63873545D01*
X161245750Y-63869200D01*
X161334250Y-63869200D01*
X161378362Y-63873545D01*
X161378362Y-63873545D01*
G37*
M02*
