M48
;DRILL file {KiCad (5.0.1-3-g963ef8bb5)} date Friday, 23 November 2018 at 17:20:50
;FORMAT={-:-/ absolute / metric / decimal}
FMAT,2
METRIC,TZ
T1C0.254
T2C1.000
T3C2.200
%
G90
G05
M71
T1
X156.142Y-72.468
X156.142Y-77.392
X156.2Y-70.8
X156.2Y-79.
X157.2Y-80.4
X157.7Y-73.63
X160.75Y-73.5
X161.2Y-70.
X161.798Y-81.788
X161.798Y-79.248
X163.1Y-74.5
X166.7Y-71.5
X170.5Y-75.
X170.5Y-79.
X172.2Y-68.8
X172.5Y-77.
X173.2Y-70.95
X174.5Y-75.
X174.5Y-79.
X177.075Y-69.3
X178.05Y-81.35
X178.75Y-83.
X183.2Y-71.
X184.075Y-81.325
X184.4Y-70.3
X185.1Y-70.9
X185.5Y-72.75
X185.625Y-79.75
X185.8Y-71.6
X188.013Y-73.1
T2
X161.29Y-64.77
X163.83Y-64.77
X166.37Y-64.77
X168.91Y-64.77
X171.45Y-64.77
X173.99Y-64.77
X176.53Y-64.77
X179.07Y-64.77
X181.61Y-64.77
X184.15Y-64.77
X161.29Y-85.09
X163.83Y-85.09
X166.37Y-85.09
X168.91Y-85.09
X171.45Y-85.09
X173.99Y-85.09
X176.53Y-85.09
X179.07Y-85.09
X181.61Y-85.09
X184.15Y-85.09
T3
X154.94Y-83.82
X154.94Y-66.04
X187.96Y-83.82
X187.96Y-66.04
T0
M30
